<?xml version="1.0" encoding="UTF-8" standalone="no"?>
<svg
   id="Layer_1"
   version="1.1"
   viewBox="0 0 663.09997 475.20001"
   width="663.09998"
   height="475.20001"
   sodipodi:docname="Walmart_logo_(2025;_Stacked_alt).svg"
   inkscape:version="1.2.2 (b0a8486541, 2022-12-01)"
   xmlns:inkscape="http://www.inkscape.org/namespaces/inkscape"
   xmlns:sodipodi="http://sodipodi.sourceforge.net/DTD/sodipodi-0.dtd"
   xmlns="http://www.w3.org/2000/svg"
   xmlns:svg="http://www.w3.org/2000/svg">
  <sodipodi:namedview
     id="namedview252"
     pagecolor="#ffffff"
     bordercolor="#000000"
     borderopacity="0.25"
     inkscape:showpageshadow="2"
     inkscape:pageopacity="0.0"
     inkscape:pagecheckerboard="0"
     inkscape:deskcolor="#d1d1d1"
     showgrid="false"
     inkscape:zoom="0.43873638"
     inkscape:cx="557.28226"
     inkscape:cy="455.85461"
     inkscape:window-width="1366"
     inkscape:window-height="683"
     inkscape:window-x="0"
     inkscape:window-y="0"
     inkscape:window-maximized="1"
     inkscape:current-layer="Layer_1" />
  <!-- Generator: Adobe Illustrator 29.1.0, SVG Export Plug-In . SVG Version: 2.1.0 Build 142)  -->
  <defs
     id="defs1195">
    <style
       id="style1193">
      .st0 {
        fill: #ffc220;
      }

      .st1 {
        fill: #0157e9;
      }
    </style>
  </defs>
  <g
     id="g1365"
     transform="translate(-89.4,-60.1)">
    <g
       id="g1209">
      <path
         class="st0"
         d="m 476.9,199.8 c 6.4,-1.3 62.9,-27.2 68,-30.1 11.5,-6.6 15.4,-21.4 8.8,-32.9 -6.6,-11.5 -21.4,-15.4 -32.9,-8.8 -5.1,2.9 -55.7,38.9 -60.1,43.8 -5,5.6 -5.8,13.6 -2.2,19.9 3.7,6.4 11,9.6 18.3,8.1 v 0 z"
         id="path1197" />
      <path
         class="st0"
         d="m 544.9,257.1 c -5.1,-2.9 -61.6,-28.8 -68,-30.1 -7.3,-1.5 -14.7,1.7 -18.3,8.1 -3.6,6.4 -2.8,14.3 2.2,19.9 4.3,4.9 55,40.9 60.1,43.8 11.5,6.6 26.3,2.7 32.9,-8.8 6.6,-11.5 2.7,-26.3 -8.8,-32.9 v 0 z"
         id="path1199" />
      <path
         class="st0"
         d="m 420.9,256.8 c -7.3,0 -13.8,4.7 -16.2,11.8 -2.1,6.2 -7.9,68.1 -7.9,73.9 0,13.3 10.8,24.1 24.1,24.1 13.3,0 24.1,-10.8 24.1,-24.1 0,-13.3 -5.9,-67.8 -7.9,-73.9 -2.4,-7.1 -8.9,-11.8 -16.2,-11.8 z"
         id="path1201" />
      <path
         class="st0"
         d="m 365,227 c -6.4,1.3 -62.9,27.2 -68,30.1 -11.5,6.6 -15.4,21.4 -8.8,32.9 6.6,11.5 21.4,15.4 32.9,8.8 5.1,-2.9 55.7,-38.9 60.1,-43.8 5,-5.6 5.8,-13.6 2.2,-19.9 -3.7,-6.4 -11,-9.6 -18.3,-8.1 v 0 z"
         id="path1203" />
      <path
         class="st0"
         d="m 321.1,127.9 c -11.5,-6.6 -26.3,-2.7 -32.9,8.8 -6.6,11.5 -2.7,26.3 8.8,32.9 5.1,2.9 61.6,28.8 68,30.1 7.3,1.5 14.7,-1.7 18.3,-8.1 3.6,-6.4 2.8,-14.3 -2.2,-19.9 -4.3,-4.9 -55,-40.9 -60.1,-43.8 v 0 z"
         id="path1205" />
      <path
         class="st0"
         d="m 420.9,60.1 c -13.3,0 -24.1,10.8 -24.1,24.1 0,13.3 5.9,67.8 7.9,73.9 2.4,7.1 8.9,11.8 16.2,11.8 7.3,0 13.8,-4.7 16.2,-11.8 2.1,-6.2 7.9,-68.1 7.9,-73.9 0,-13.3 -10.8,-24.1 -24.1,-24.1 z"
         id="path1207" />
    </g>
  </g>
  <g
     id="g527"
     transform="matrix(3.301464,0,0,3.3004119,0,354.9)"
     style="fill:#0157e9;fill-opacity:1">
    <polygon
       class="st0"
       points="19.15,0 13.92,23.33 9.26,0 0,0 7.55,35.63 18.34,35.63 23.61,11.97 28.89,35.63 39.43,35.63 46.94,0 38.1,0 33.45,23.33 28.22,0 "
       id="polygon1"
       style="fill:#0157e9;fill-opacity:1" />
    <path
       class="st0"
       d="m 59.7,6.56 c -5.75,0 -9.79,1.95 -11.26,3.33 v 7.6 c 1.71,-1.52 5.32,-3.75 10.07,-3.75 2.95,0 4.04,0.81 4.04,2.47 0,1.43 -1.52,2 -5.75,2.9 -6.41,1.33 -10.12,3.66 -10.12,9.22 0,5.13 3.37,8.12 8.27,8.12 4.1,0 6.55,-1.9 7.89,-4.46 v 3.65 h 8.84 V 18.16 C 71.68,10.13 67.5,6.57 59.71,6.57 Z m -1.24,24.13 c -2.09,0 -3.23,-1.28 -3.23,-3.04 0,-2.28 1.81,-3.18 4.09,-3.99 1.19,-0.45 2.38,-0.91 3.18,-1.61 v 3.94 c 0,2.99 -1.57,4.7 -4.04,4.7 z"
       id="path1"
       style="fill:#0157e9;fill-opacity:1" />
    <rect
       class="st0"
       x="76.089996"
       width="9.1700001"
       height="35.630001"
       id="rect1"
       style="fill:#0157e9;fill-opacity:1"
       y="0" />
    <path
       class="st0"
       d="m 123.17,6.65 c -4.46,0 -7.33,2.68 -8.83,6.25 -0.8,-3.82 -3.48,-6.25 -7.23,-6.25 -4.24,0 -7.01,2.48 -8.41,5.95 V 7.46 h -9.03 v 28.17 h 9.17 V 20 c 0,-3.85 1.28,-6.03 4.04,-6.03 2.23,0 2.99,1.52 2.99,3.9 v 17.77 h 9.17 V 20.01 c 0,-3.85 1.28,-6.03 4.04,-6.03 2.23,0 2.99,1.52 2.99,3.9 v 17.77 h 9.17 V 16.6 c 0,-5.94 -2.8,-9.93 -8.08,-9.93 z"
       id="path2"
       style="fill:#0157e9;fill-opacity:1" />
    <path
       class="st0"
       d="m 147.31,6.56 c -5.75,0 -9.79,1.95 -11.26,3.33 v 7.6 c 1.71,-1.52 5.32,-3.75 10.07,-3.75 2.95,0 4.04,0.81 4.04,2.47 0,1.43 -1.52,2 -5.75,2.9 -6.41,1.33 -10.12,3.66 -10.12,9.22 0,5.13 3.37,8.12 8.27,8.12 4.1,0 6.55,-1.9 7.89,-4.46 v 3.65 h 8.84 V 18.16 c 0,-8.03 -4.18,-11.59 -11.97,-11.59 z m -1.24,24.13 c -2.09,0 -3.23,-1.28 -3.23,-3.04 0,-2.28 1.81,-3.18 4.09,-3.99 1.19,-0.45 2.38,-0.91 3.18,-1.61 v 3.94 c 0,2.99 -1.57,4.7 -4.04,4.7 z"
       id="path3"
       style="fill:#0157e9;fill-opacity:1" />
    <g
       id="g5"
       style="fill:#0157e9;fill-opacity:1">
      <path
         class="st0"
         d="M 172.73,15.38 V 7.46 h -9.03 v 28.17 h 9.22 V 23.66 c 0,-5.51 3.61,-6.98 6.89,-6.98 1.09,0 2.14,0.14 2.61,0.29 v -9.7 c -5.36,-0.25 -8.49,3.03 -9.69,8.11 z"
         id="path4"
         style="fill:#0157e9;fill-opacity:1" />
      <path
         class="st0"
         d="M 200.82,14.59 V 7.46 h -5.8 V 2 h -9.17 v 24.23 c 0,6.79 3.8,9.98 9.93,9.98 2.85,0 4.37,-0.57 5.04,-1 v -7.08 c -0.52,0.38 -1.38,0.67 -2.47,0.67 -2,0.05 -3.33,-0.86 -3.33,-3.85 V 14.59 Z"
         id="path5"
         style="fill:#0157e9;fill-opacity:1" />
    </g>
  </g>
</svg>
