<svg width="3307" height="2108" viewBox="0 0 3307 2108" fill="none" xmlns="http://www.w3.org/2000/svg">
<g id="Group 13">
<g id="POLYGONS">
<path id="PARQUEZIELO" d="M2500 1282.5L2504 1319.5L2520 1331.5L2547.5 1319.5L2600.5 1290L2656 1282.5L2670.5 1276.5L2704.5 1265L2685.5 1246L2670.5 1241.5L2645.5 1246L2606.5 1255.5H2578.5L2541.5 1246L2509.5 1260.5L2500 1282.5Z" fill="#62BD4F" stroke="#456643" stroke-width="4"/>
<path id="PLAZAPASEOZIBATA" d="M2895.5 1080L2961.5 1127L2979 1096L2966 1082V1061.5L2926.5 1034L2895.5 1080Z" fill="#ECE2CA" stroke="#F8F8F8" stroke-width="4"/>
<path id="UNK79" d="M2926.5 1034L2896 1080L2834 1033.5L2859.5 988L2926.5 1034Z" fill="#D3D3D3" stroke="#F8F8F8" stroke-width="4"/>
<path id="WALMART" d="M2801.5 833.5L2764 898H2757.5L2747.5 869.5L2728 851H2690.5L2718 812.5H2757.5L2801.5 833.5Z" fill="#ECE2CA" stroke="#F8F8F8" stroke-width="4"/>
<path id="PARQUENANDU" d="M634.5 619.5L586.5 692L656.5 680L676.5 667.5L706 663.5L725.5 633.5L765.5 602L704 597.5H664L634.5 619.5Z" fill="#62BD4F" stroke="#456643" stroke-width="4"/>
<g id="PARQUEJAMADI" filter="url(#filter0_d_21_1470)">
<path d="M1740.5 1265.5L1688 1272L1644.5 1289L1641.5 1295.5L1650.5 1304L1732 1344.5L1799.5 1368L1902.5 1388.5L1910 1373L1902.5 1341.5L1884.5 1307L1815.5 1283L1779 1274.5L1740.5 1265.5Z" fill="#62BD4F"/>
<path d="M1740.5 1265.5L1688 1272L1644.5 1289L1641.5 1295.5L1650.5 1304L1732 1344.5L1799.5 1368L1902.5 1388.5L1910 1373L1902.5 1341.5L1884.5 1307L1815.5 1283L1779 1274.5L1740.5 1265.5Z" stroke="#456643" stroke-width="4"/>
</g>
<path id="ARIETTA" d="M2111 1182.5L2114.5 1119.5H2134L2172.5 1114L2199.5 1110.5L2248 1103L2295.5 1089.5V1103L2304.5 1151L2314 1192L2329.5 1235L2343.5 1275.5L2228.5 1284V1292.5L2120 1296L2114.5 1220L2111 1182.5Z" fill="#D3D3D3" stroke="#F8F8F8" stroke-width="4"/>
<path id="CONDESA2" d="M2158.5 753.5L2140 740L2136.5 723L2213 652L2225.5 642L2245.5 634.5L2264.5 631.5L2286 634.5L2302.5 642L2315.5 652L2328.5 667.5L2334.5 688L2337 709L2330.5 733L2322.5 746L2245.5 834L2236 831H2227.5L2217.5 816.5L2200 796L2158.5 753.5Z" fill="#D3D3D3" stroke="#F8F8F8" stroke-width="4"/>
<path id="UNK77" d="M1053.5 807.5L986 859.5L1025.5 863.5L1086.5 871L1147.5 891L1190 918.5L1185 830.5L1179 817.5L1083.5 807.5H1053.5Z" fill="#D3D3D3" stroke="#F8F8F8" stroke-width="4"/>
<path id="UNK76" d="M1867.5 284.5L1852.5 363L1888 395.5L1945 329L1906 288L1901.5 291L1867.5 284.5Z" fill="#D3D3D3" stroke="#F8F8F8" stroke-width="4"/>
<path id="UNK75" d="M1947.5 331L1891.5 396.5L1929.5 434L2000.5 386L1947.5 331Z" fill="#D3D3D3" stroke="#F8F8F8" stroke-width="4"/>
<path id="UNK74" d="M1927 435.5L1859.5 482.5L1806 413.5L1826 396.5L1842.5 383.5L1851.5 364L1927 435.5Z" fill="#D3D3D3" stroke="#F8F8F8" stroke-width="4"/>
<path id="UNK73" d="M2002.5 389L1932.5 435.5L2013 519.5L2088 473L2002.5 389Z" fill="#D3D3D3" stroke="#F8F8F8" stroke-width="4"/>
<path id="UNK72" d="M1929.5 438L1862 484.5L1868.5 488.5V501L1939 566.5L2011.5 520L1929.5 438Z" fill="#D3D3D3" stroke="#F8F8F8" stroke-width="4"/>
<path id="UNK71" d="M2012 521.5L1939 567L2020 642L2087 600L2012 521.5Z" fill="#D3D3D3" stroke="#F8F8F8" stroke-width="4"/>
<path id="UNK70" d="M2088.5 473.5L2014 520.5V522.5L2088.5 598L2162 551L2148 534L2088.5 473.5Z" fill="#D3D3D3" stroke="#F8F8F8" stroke-width="4"/>
<path id="UNK69" d="M2088.5 601.5L2021 645.5L2101.5 713.5L2111 709.5L2122 711L2161.5 672.5L2088.5 601.5Z" fill="#D3D3D3" stroke="#F8F8F8" stroke-width="4"/>
<path id="UNK68" d="M2162.5 553L2090.5 598.5L2162.5 672L2206 629.5L2162.5 553Z" fill="#D3D3D3" stroke="#F8F8F8" stroke-width="4"/>
<path id="BELVERDE" d="M2088.5 762.5V794.5L2043.5 819.5L2009 837.5L1972.5 874L1968.5 878.5L1960 857.5L1950 850L1908 806.5L2023.5 666.5L2085 722.5L2091 746.5L2088.5 762.5Z" fill="#D3D3D3" stroke="#F8F8F8" stroke-width="4"/>
<path id="YAVIA" d="M2024 666.5L1907.5 808.5L1895.5 794L1861.5 772.5L1843.5 756.5L1840.5 744L1826 722L1822.5 694L1817 676.5L1808.5 662V653.5L1817 645.5V632L1891.5 549L2024 666.5Z" fill="#D3D3D3" stroke="#F8F8F8" stroke-width="4"/>
<path id="UNK67" d="M2406 978L2471.5 952L2391 728.5L2351.5 723.5L2338.5 756L2315 786.5L2256.5 844.5L2252 866L2256.5 880.5L2277.5 933.5L2294.5 1012L2356 993.5L2382.5 988L2406 978Z" fill="#D3D3D3" stroke="#F8F8F8" stroke-width="4"/>
<path id="UNK66" d="M2148.5 872L2123 854L2019 962.5L2030.5 994H2070H2094.5H2123H2170.5L2203.5 998H2243L2277 1007.5L2271.5 974L2253 907.5L2232.5 879.5L2218.5 872L2197 879.5L2148.5 872Z" fill="#D3D3D3" stroke="#F8F8F8" stroke-width="4"/>
<path id="CARDON" d="M2009 837.5L1970.5 879H1967.5L1979.5 899.5L2019.5 962L2124 854.5L2103 831.5L2088.5 796.5L2009 837.5Z" fill="#D3D3D3" stroke="#F8F8F8" stroke-width="4"/>
<path id="PARQUESAKI" d="M2191.5 860L2208 856.5L2209 847.5L2212.5 841L2208 835L2185 806L2167 786.5L2151 772L2129.5 755.5L2121.5 759L2110 760L2106.5 770.5V784.5L2109 801.5L2113.5 815L2120.5 827L2133.5 841L2144.5 848.5L2157.5 855.5L2173 859L2191.5 860Z" fill="#62BD4F" stroke="#456643" stroke-width="4"/>
<path id="UNK65" d="M2598 1235L2563 1229L2529 1139.5L2563 1123L2598 1116.5L2631 1103L2665 1081H2711L2726 1077L2760.5 1103L2769.5 1165L2773 1173.5L2798.5 1241H2793.5L2722.5 1261.5L2701.5 1235L2684 1221.5H2646L2598 1235Z" fill="#D3D3D3" stroke="#F8F8F8" stroke-width="4"/>
<path id="UNK64" d="M2332.5 1184.5L2395 1389.5L2413.5 1402.5L2459.5 1386L2473.5 1372.5L2483 1365L2478 1358.5V1355V1335.5L2487.5 1325L2483 1316V1270L2498 1243L2535.5 1228H2561.5L2527 1139L2427.5 1115L2369.5 1105L2336 1098.5L2311.5 1082L2323.5 1145.5L2332.5 1184.5Z" fill="#D3D3D3" stroke="#F8F8F8" stroke-width="4"/>
<path id="UNK52" d="M678.5 1676L622 1984L703.5 2001L853 1944L831 1918L772 1893V1883.5L781 1796L793 1791L799 1767.5L776.5 1751.5L781 1672L831 1691.5L857.5 1666.5L899.5 1686.5L912 1655.5L895.5 1643.5L883 1620L748.5 1599.5V1604.5L729 1655.5L712 1672L678.5 1676Z" fill="#D3D3D3" stroke="#F8F8F8" stroke-width="4"/>
<path id="UNK63" d="M529.5 1734L535 1966L620 1983.5L675 1676H663.5L647 1658L640.5 1635.5L540.5 1616.5L535 1658L574 1703V1734L559.5 1742L529.5 1734Z" fill="#D3D3D3" stroke="#F8F8F8" stroke-width="4"/>
<path id="UNK61" d="M541 1612.5L640 1632.5L635 1576V1538.5L644 1485.5L571.5 1440.5L541 1612.5Z" fill="#D3D3D3" stroke="#F8F8F8" stroke-width="4"/>
<path id="UNK60" d="M581.5 1423L649.5 1464L665.5 1413L684 1365.5L709.5 1318.5L640.5 1290L581.5 1423Z" fill="#D3D3D3" stroke="#F8F8F8" stroke-width="4"/>
<path id="UNK59" d="M641 1286.5L710.5 1316.5L724.5 1301.5L735.5 1286.5L759.5 1266L785.5 1249L775 1171L753.5 1182.5L710.5 1171L649 1175.5L641 1167H627L564 1199L606 1243L641 1286.5Z" fill="#D3D3D3" stroke="#F8F8F8" stroke-width="4"/>
<path id="UNK58" d="M876 1226L826 1235.5L800 1055.5L840 1052L882.5 1049L913 1048.5L939.5 1059.5L950.5 1071.5L932.5 1223L910 1222.5L876 1226Z" fill="#D3D3D3" stroke="#F8F8F8" stroke-width="4"/>
<path id="UNK57" d="M954 1074.5L935 1223.47L991 1232L1006.5 1117L982.5 1109.11L954 1074.5Z" fill="#D3D3D3" stroke="#F8F8F8" stroke-width="4"/>
<path id="UNK56" d="M1007 1117L992 1232L1018.5 1237L1045 1250L1054.5 1208L1065 1132L1007 1117Z" fill="#D3D3D3" stroke="#F8F8F8" stroke-width="4"/>
<path id="UNK55" d="M1058.5 1200L1048 1253L1110.5 1291L1118 1253L1125 1204.5L1129 1156L1066.5 1131.5L1058.5 1200Z" fill="#D3D3D3" stroke="#F8F8F8" stroke-width="4"/>
<path id="UNK54" d="M1171 1174.5L1132.5 1157.5L1128 1194.5L1122.5 1231L1111.5 1291.5L1161.5 1318L1203.5 1331.5L1238 1334L1307 1331.5L1298.5 1311.5L1262.5 1249.5L1253 1235.5L1227 1215L1200 1194.5L1171 1174.5Z" fill="#D3D3D3" stroke="#F8F8F8" stroke-width="4"/>
<path id="UNK53" d="M1359 929L1325 1014L1426 1059H1431.5L1426 1042.5L1412 986L1405.5 941.5L1359 929Z" fill="#D3D3D3" stroke="#F8F8F8" stroke-width="4"/>
<path id="UNK52_2" d="M1321 855.5L1293.5 911L1406 940.5V911L1411 878L1321 855.5Z" fill="#D3D3D3" stroke="#F8F8F8" stroke-width="4"/>
<path id="UNK51" d="M1353 799.5L1324.5 854.5L1411 877.5L1418 846L1429 816.5L1353 799.5Z" fill="#D3D3D3" stroke="#F8F8F8" stroke-width="4"/>
<path id="UNK50" d="M1220 833.5L1204 823L1191 801.5L1177 795L1156.5 792.5L1055 787.5L1144.5 682L1267 766L1220 833.5Z" fill="#D3D3D3" stroke="#F8F8F8" stroke-width="4"/>
<path id="UNK49" d="M1219.5 834L1203 823L1211 920H1219.5L1226 927.5L1229.5 936V953L1257 974L1350.5 798.5L1267 766L1219.5 834Z" fill="#D3D3D3" stroke="#F8F8F8" stroke-width="4"/>
<path id="PLAZACENTRO" d="M1292.5 910L1258 974.5L1324.5 1014L1358.5 929L1292.5 910Z" fill="#ECE2CA" stroke="#F8F8F8" stroke-width="4"/>
<path id="HEB" d="M2230.5 1284V1291L2238 1356L2274 1403L2366.5 1405.5L2376 1393L2343 1277.5L2230.5 1284Z" fill="#ECE2CA" stroke="#F8F8F8" stroke-width="4"/>
<path id="VITASOPHIA" d="M2781.5 1195L2797.5 1238.5L2891.5 1201.5L2912 1186.5L2934.5 1151.5H2943L2961.5 1127.5L2867.5 1059.5L2807 1156L2797.5 1161L2781.5 1195Z" fill="#D3D3D3" stroke="#F8F8F8" stroke-width="4"/>
<path id="CONDESA" d="M2769 1168L2781 1194.5L2797.5 1162.5L2805 1156.5L2866 1059.5L2834 1034L2858 987.5L2805 952L2727 1077.5L2761 1106L2769 1168Z" fill="#D3D3D3" stroke="#F8F8F8" stroke-width="4"/>
<path id="AUREA" d="M2597 988L2727 1077.5L2806.5 952L2748.5 907H2727H2710.5L2687 892L2675 864.5H2665L2597 988Z" fill="#D3D3D3" stroke="#F8F8F8" stroke-width="4"/>
<path id="UNK48" d="M1222 522L1217 506.5L1301 454H1311.5L1332 450.5L1342 446L1351 444.5V522L1315 579L1262.5 542L1222 522Z" fill="#D3D3D3" stroke="#F8F8F8" stroke-width="4"/>
<path id="UNK47" d="M1426 449L1352 444.5V521L1316 579.5L1352 607.5L1412 627L1443.5 451.5L1426 449Z" fill="#D3D3D3" stroke="#F8F8F8" stroke-width="4"/>
<path id="UNK46" d="M1443.5 451.5L1428.5 539.5L1498 544.5L1512 469L1443.5 451.5Z" fill="#D3D3D3" stroke="#F8F8F8" stroke-width="4"/>
<path id="UNK45" d="M1428.5 539L1412 627L1450 640.5L1476 655.5L1498 545L1428.5 539Z" fill="#D3D3D3" stroke="#F8F8F8" stroke-width="4"/>
<path id="UNK44" d="M1622.5 496L1549 477L1534 546.5L1607.5 564L1622.5 496Z" fill="#D3D3D3" stroke="#F8F8F8" stroke-width="4"/>
<path id="UNK43" d="M1607 563.5L1534 546.5L1509.5 653L1526 645L1559 635L1593 631L1607 563.5Z" fill="#D3D3D3" stroke="#F8F8F8" stroke-width="4"/>
<path id="UNK42" d="M1622.5 496L1593.5 630.5L1638 638.5L1655 630.5H1692.5L1675.5 500.5H1668H1648.5L1622.5 496Z" fill="#D3D3D3" stroke="#F8F8F8" stroke-width="4"/>
<path id="UNK41" d="M1676 500.5L1696.5 630L1741 617L1768.5 603H1780L1792.5 588L1732 476L1701.5 492.5L1676 500.5Z" fill="#D3D3D3" stroke="#F8F8F8" stroke-width="4"/>
<path id="UNK40" d="M1800.5 576L1793.5 586.5L1731.5 476L1780.5 437L1834 498.5L1845.5 512H1858L1878.5 538L1800.5 576Z" fill="#D3D3D3" stroke="#F8F8F8" stroke-width="4"/>
<path id="UNK39" d="M1563.5 404.5L1553.5 461L1648.5 484H1661.5L1656 426.5H1647.5L1617 419L1563.5 404.5Z" fill="#D3D3D3" stroke="#F8F8F8" stroke-width="4"/>
<path id="UNK38" d="M1659.5 426L1665 483.5L1692.5 479L1714 468L1724.5 457.5L1765 426L1762 422.5L1753.5 413.5L1757 396.5L1739 377L1703.5 404.5L1673 422.5L1659.5 426Z" fill="#D3D3D3" stroke="#F8F8F8" stroke-width="4"/>
<path id="UNK37" d="M1789.5 335.5L1750 367L1766 387L1770.5 385H1782.5L1791 389.5L1795.5 398.5L1829 373L1836.5 360.5L1842 326L1850.5 281.5L1800 272L1789.5 335.5Z" fill="#D3D3D3" stroke="#F8F8F8" stroke-width="4"/>
<path id="UNK36" d="M1786 334L1748.5 365L1690.5 303.5L1703 290.5L1783.5 255.5V260.5L1786 267.5L1798 271.5L1786 334Z" fill="#D3D3D3" stroke="#F8F8F8" stroke-width="4"/>
<path id="UNK35" d="M1289.5 440L1208.5 488L1194 469L1180.5 454L1176 435L1166 419.5L1226.5 390.5L1286 375.5L1294 415.5L1289.5 425V440Z" fill="#D3D3D3" stroke="#F8F8F8" stroke-width="4"/>
<path id="UNK34" d="M1165 395V416L1225.5 388L1285.5 373.5L1274 326L1265.5 308.5L1211.5 320.5L1146 348L1153.5 373.5L1165 395Z" fill="#D3D3D3" stroke="#F8F8F8" stroke-width="4"/>
<path id="UNK33" d="M1129 301L1113 287.5L1233 200.5H1235V206.5V220L1239.5 228.5L1244 235.5H1255.5L1274 290L1267.5 297.5L1265.5 308L1210.5 320L1146 347.5L1137 314.5L1129 301Z" fill="#D3D3D3" stroke="#F8F8F8" stroke-width="4"/>
<path id="UNK32" d="M1367.5 308L1310.5 307L1305.5 294.5L1300.5 289L1287 287L1281 260.5L1269 233.5L1274 228.5L1279.5 219V205L1274 197.5L1302.5 187.5L1334.5 173L1343.5 156.5L1358 159.5L1375 199.5L1367.5 308Z" fill="#D3D3D3" stroke="#F8F8F8" stroke-width="4"/>
<path id="UNK31" d="M1423 308H1310.5L1306.5 317L1315.5 365.5L1410.5 367L1423 308Z" fill="#D3D3D3" stroke="#F8F8F8" stroke-width="4"/>
<path id="UNK30" d="M1410.5 368.5H1316.5L1325 409.5L1337.5 416.5L1348 428L1425 430V428L1423 425.5L1416 414.5V405.5L1407.5 391.5L1410.5 368.5Z" fill="#D3D3D3" stroke="#F8F8F8" stroke-width="4"/>
<path id="UNK29" d="M1441.5 404L1429.5 407.5V410L1431.5 412.5L1437 419L1439 433L1516.5 452L1525.5 399.5L1450.5 381.5V392.5L1441.5 404Z" fill="#D3D3D3" stroke="#F8F8F8" stroke-width="4"/>
<path id="UNK28" d="M1461.5 328L1450.5 376V379.5L1527 397L1537.5 345.5L1461.5 328Z" fill="#D3D3D3" stroke="#F8F8F8" stroke-width="4"/>
<path id="UNK27" d="M1466.5 305.5L1462.5 324.5L1538 342.5L1549.5 283L1532.5 280L1511.5 260.5L1466.5 305.5Z" fill="#D3D3D3" stroke="#F8F8F8" stroke-width="4"/>
<path id="UNK26" d="M1572.5 351L1587 281L1640.5 299V309L1676.5 316.5L1679.5 312L1700.5 335.5L1654.5 368.5L1572.5 351Z" fill="#D3D3D3" stroke="#F8F8F8" stroke-width="4"/>
<path id="UNK25" d="M1572 353L1564 402L1648.5 423.5H1656L1653 371L1572 353Z" fill="#D3D3D3" stroke="#F8F8F8" stroke-width="4"/>
<path id="UNK24" d="M1656.5 370L1660 423L1674.5 419L1708 397L1738.5 376L1701 336L1656.5 370Z" fill="#D3D3D3" stroke="#F8F8F8" stroke-width="4"/>
<path id="JICURI" d="M1201 1566L1216.5 1350.5L1237 1353L1336.5 1350.5L1321.5 1607.5L1281 1602.5L1243 1589.5L1214.5 1575.5L1201 1566Z" fill="#D3D3D3" stroke="#F8F8F8" stroke-width="4"/>
<path id="UNK23" d="M1212.5 1349L1199 1564.5L1174.5 1542L1136.5 1533.5L1076.5 1523.5L1110 1313L1130.5 1325.5L1156.5 1336.5L1212.5 1349Z" fill="#D3D3D3" stroke="#F8F8F8" stroke-width="4"/>
<path id="UNK22" d="M1075.5 1523.5L1022.5 1521.5L982.5 1245L1028.5 1260.5L1073 1288.5L1107.5 1311.5L1075.5 1523.5Z" fill="#D3D3D3" stroke="#F8F8F8" stroke-width="4"/>
<path id="UNK21" d="M966 1521.5H1019L996.5 1365L991 1367.5L974 1351L955 1334.5L925 1322.5H907L885.5 1371L900 1372.5L922.5 1387L935 1419.5V1470.5L922.5 1518.5L896.5 1592L913 1633L945 1655H950H966L953 1576L966 1521.5Z" fill="#D3D3D3" stroke="#F8F8F8" stroke-width="4"/>
<path id="UNK20" d="M854.5 1536L845.5 1612.5L749 1596L762.5 1524L854.5 1536Z" fill="#D3D3D3" stroke="#F8F8F8" stroke-width="4"/>
<path id="UNK19" d="M793 1441.5L764.5 1520.5L893.5 1540L899 1527L921 1460L917 1420L899 1395.5L879 1388.5H851.5L816 1414.5L793 1441.5Z" fill="#D3D3D3" stroke="#F8F8F8" stroke-width="4"/>
<path id="UNK18" d="M847.5 1611.5L857 1537.5L891.5 1541.5L883 1564.5L879 1588L882.5 1618L847.5 1611.5Z" fill="#D3D3D3" stroke="#F8F8F8" stroke-width="4"/>
<path id="UNK17" d="M721 1624L705 1653.5L696 1658.5L666.5 1653.5L652.5 1621V1570.5L658 1513L674 1451L759 1473.5L755.5 1484L741.5 1524L732.5 1589.5L721 1624Z" fill="#D3D3D3" stroke="#F8F8F8" stroke-width="4"/>
<path id="UNK16" d="M674.5 1449L759.5 1472.5L769 1449L796.5 1407.5L814.5 1389L849 1371H882.5L904 1322L891 1318L875 1296.5L845 1293L818.5 1304.5L803 1331.5H759.5L728.5 1325.5L710.5 1349.5L692.5 1386L674.5 1449Z" fill="#D3D3D3" stroke="#F8F8F8" stroke-width="4"/>
<path id="UNK15" d="M856.5 1945L710 2002L779.5 2013L866 2031.5L879.5 2029L913 2005L926.5 1970L976.5 1958.5L979 1975L1020.5 1978L1040 1988L1081.5 1963.5H1120L1144.5 1799.5L1116.5 1787.5L1100 1795.5L976.5 1689L971 1697L959 1710.5H945.5L930.5 1699L924 1680L930.5 1669.5L914.5 1657.5L902 1689L904.5 1721L964.5 1753.5V1799.5L940.5 1867L904.5 1851L856.5 1945Z" fill="#D3D3D3" stroke="#F8F8F8" stroke-width="4"/>
<path id="UNK14" d="M2496 732.5L2683.5 853.5H2689.5L2717.5 814.5H2760L2802 834L2855.5 744.5L2546 579.5L2527 624L2522.5 619L2500.5 606.5H2475L2465 614.5V632L2475 685.5L2465 720.5L2496 732.5Z" fill="#D3D3D3" stroke="#F8F8F8" stroke-width="4"/>
<path id="UNK13" d="M2392 728L2472.5 952.5L2597 988L2665 863.5L2525.5 774.5L2476.5 745.5L2449.5 735.5L2392 728Z" fill="#D3D3D3" stroke="#F8F8F8" stroke-width="4"/>
<path id="UNK12" d="M2353.5 705L2464.5 722L2476 687L2469 647L2464.5 629V617L2472.5 606H2499L2513 614L2526.5 623.5L2546.5 580L2322 458L2278.5 548H2248L2211 557L2193 568.5L2218.5 621L2248 614.5H2272L2300.5 621L2322 634L2340 655.5L2353.5 680V705Z" fill="#D3D3D3" stroke="#F8F8F8" stroke-width="4"/>
<path id="UNK11" d="M2173 376L2322.5 456.5L2279.5 547H2247L2212.5 557L2194 569.5L2190.5 565L2181.5 547L2142 505.5L2024.5 387L2087.5 310.5L2105.5 326L2173 376Z" fill="#D3D3D3" stroke="#F8F8F8" stroke-width="4"/>
<path id="UNK10" d="M1986.5 348.5L2024.5 386L2089 310.5L2050 280L1986.5 348.5Z" fill="#D3D3D3" stroke="#F8F8F8" stroke-width="4"/>
<path id="UNK9" d="M1939.5 300.5L1986.5 350L2050.5 280L1996 237L1939.5 300.5Z" fill="#D3D3D3" stroke="#F8F8F8" stroke-width="4"/>
<path id="UNK8" d="M1910 273.5L1939.5 299.5L1995.5 238.5L1969 230H1951.5L1933.5 215L1889.5 226.5L1873 215H1790.5L1784.5 248.5L1794.5 244H1809L1904 262L1910 273.5Z" fill="#D3D3D3" stroke="#F8F8F8" stroke-width="4"/>
<path id="ENTRECIELOS" d="M970.5 888L956.5 890.5L908.5 1047L918 1048L942.5 1059L960.5 1081.5L982 1109.5L1047.5 1125L1103.5 898L1062 888L1018.5 881.5L981.5 879L970.5 888Z" fill="#D3D3D3" stroke="#F8F8F8" stroke-width="4"/>
<path id="UNK7" d="M814 808.5L667.5 977.5L726.5 1016L768.5 1044.5L796.5 1051.5H821L877.5 1047H907L955 890.5L940.5 882L935.5 868.5L912 862L873.5 848L842 831.5L814 808.5Z" fill="#D3D3D3" stroke="#F8F8F8" stroke-width="4"/>
<path id="UNK6" d="M1372.5 1165L1262.5 1243.5L1286.5 1287L1310 1331L1485 1326.5L1372.5 1165Z" fill="#D3D3D3" stroke="#F8F8F8" stroke-width="4"/>
<path id="UNK5" d="M1543 1240L1468.5 1298.5L1421.5 1229.5L1495 1174.5L1513 1203.5L1543 1240Z" fill="#D3D3D3" stroke="#F8F8F8" stroke-width="4"/>
<path id="UNK4" d="M1544 1241L1470 1300L1488.5 1326.5L1556.5 1325L1582 1320L1595.5 1308.5L1590.5 1300V1287.5L1544 1241Z" fill="#D3D3D3" stroke="#F8F8F8" stroke-width="4"/>
<path id="UNK3" d="M1494.5 1173.5L1420 1228.5L1375 1163L1435 1113.5L1455.5 1123.5H1468.5L1494.5 1173.5Z" fill="#D3D3D3" stroke="#F8F8F8" stroke-width="4"/>
<path id="UNK2" d="M1572 1199L1549.5 1220.5L1602 1271H1604H1613.5H1624.5L1631.5 1276L1652.5 1264L1572 1199Z" fill="#D3D3D3" stroke="#F8F8F8" stroke-width="4"/>
<path id="UNK1" d="M2119.5 1297.5L2127.5 1406L2273 1403L2237.5 1357.5L2230 1293L2119.5 1297.5Z" fill="#D3D3D3" stroke="#F8F8F8" stroke-width="4"/>
<path id="THANDI" d="M1114 899L1104.5 898L1049.5 1125L1096.5 1142L1160.5 1167.5L1174.5 1174.5L1206 1196.5L1322 1033.5L1294 1020L1251 993L1217.5 966H1208H1194.5L1181.5 952V938L1160.5 921L1146.5 911.5L1114 899Z" fill="#D3D3D3" stroke="#F8F8F8" stroke-width="4"/>
<path id="QUETZAL" d="M1414.5 1077L1323 1034L1208 1198L1222 1208L1246.5 1227L1263 1242.5L1312 1210L1365.5 1170.5L1434 1113.5L1425.5 1106.5L1414.5 1090V1077Z" fill="#D3D3D3" stroke="#F8F8F8" stroke-width="4"/>
<path id="PASEOPITAHAYAS" d="M1698 1249.5L1658.5 1264L1572.5 1198.5L1668.5 1097L1776.5 1149.5L1760.5 1249.5L1748 1244.5H1729.5L1698 1249.5Z" fill="#D3D3D3" stroke="#F8F8F8" stroke-width="4"/>
<path id="LARESERVAHAI" d="M2659 1438.5L2643.5 1308L2662.5 1303.5L2710.5 1284.5L2730.5 1425H2673L2659 1438.5Z" fill="#D3D3D3" stroke="#F8F8F8" stroke-width="4"/>
<path id="ALTURA" d="M2760.5 1272L2714 1283.5L2734 1424.5L2748 1423L2773.5 1432L2813 1442L2760.5 1272Z" fill="#D3D3D3" stroke="#F8F8F8" stroke-width="4"/>
<path id="ZURI" d="M2809.5 1254L2764 1271L2817 1442.5L2838 1436.5L2854 1430L2869.5 1413L2809.5 1254Z" fill="#D3D3D3" stroke="#F8F8F8" stroke-width="4"/>
<path id="DOSAGUAS" d="M2858 1235L2818 1252.5L2812 1253.5L2871.5 1411.5L2884.5 1399L2899 1385.5L2924 1371.5L2858 1235Z" fill="#D3D3D3" stroke="#F8F8F8" stroke-width="4"/>
<path id="SABBIA" d="M2889 1224.5L2859.5 1234.5L2927 1371L2960.5 1352H2979.5L3004.5 1318L2907.5 1215.5L2889 1224.5Z" fill="#D3D3D3" stroke="#F8F8F8" stroke-width="4"/>
<path id="ALTANA" d="M3049 1263.5L3006.5 1315L2907 1215.5L2922 1199L2940.5 1180L3049 1263.5Z" fill="#D3D3D3" stroke="#F8F8F8" stroke-width="4"/>
<path id="LOSROBLES" d="M3063 1209.5L3050.5 1260.5L2941.5 1179L2964 1151L2971 1140.5L3078 1205L3063 1209.5Z" fill="#D3D3D3" stroke="#F8F8F8" stroke-width="4"/>
<path id="ELCANTO" d="M1930.5 1427L1910 1748.5L1985 1744.5L2023.5 1765L2052.5 1758.5L2055.5 1765L2160.5 1755L2226 1714L2123 1425L1950.5 1413.5L1930.5 1427Z" fill="#D3D3D3" stroke="#F8F8F8" stroke-width="4"/>
<path id="INSPIRA" d="M1745.5 1764L1908 1748.5L1929.5 1426.5L1915 1422.5L1907.5 1417L1902 1406.5L1879 1403.5L1829.5 1396.5L1761 1377L1643.5 1651.5L1714 1746L1745.5 1764Z" fill="#D3D3D3" stroke="#F8F8F8" stroke-width="4"/>
<path id="Vector 217" d="M1711 1745L1593 1819.5H1469L1435.5 1832.5L1372 1835L1376.5 1756.5L1419.5 1723.5L1421.5 1591.5L1368.5 1612.5H1325L1339.5 1350L1446.5 1346.5L1513 1441L1550.5 1534L1711 1745Z" fill="#D3D3D3" stroke="#F8F8F8" stroke-width="4"/>
<path id="ARTESSA" d="M1530 1347H1448.5L1514 1439L1563 1422L1530 1347Z" fill="#D3D3D3" stroke="#F8F8F8" stroke-width="4"/>
<path id="SONETO" d="M1668 1354L1632.5 1333.5L1593 1347H1531L1548 1386.5L1562 1422L1668 1354Z" fill="#D3D3D3" stroke="#F8F8F8" stroke-width="4"/>
<path id="AILE" d="M1617.5 1524L1601.5 1512L1561 1422L1513.5 1437.5L1547 1533L1577 1572L1617.5 1524Z" fill="#D3D3D3" stroke="#F8F8F8" stroke-width="4"/>
<path id="SENZI" d="M1682 1558L1653.5 1548L1616.5 1522.5L1578.5 1571L1605 1606.5L1642 1655L1682 1558Z" fill="#D3D3D3" stroke="#F8F8F8" stroke-width="4"/>
<path id="BELMOND" d="M1719 1478.5L1687 1466L1660.5 1454.5L1618.5 1522.5L1656 1549L1681.5 1559.5L1719 1478.5Z" fill="#D3D3D3" stroke="#F8F8F8" stroke-width="4"/>
<path id="VANGOGH" d="M1753.5 1393.5L1731.5 1387.5L1705.5 1374L1659 1455.5L1690.5 1468.5L1718 1480L1753.5 1393.5Z" fill="#D3D3D3" stroke="#F8F8F8" stroke-width="4"/>
<path id="SAMARE" d="M1778 1150L1762 1250L1898 1291L1969.5 1063.5L1941 1043L1882.5 982.5L1821.5 885L1751.5 1137.5L1778 1150Z" fill="#D3D3D3" stroke="#F8F8F8" stroke-width="4"/>
<path id="CACTUS" d="M1925.5 1353.5L1898 1292L1968.5 1061.5L2008.5 1078L2017 1094.5L2112 1121V1192L2125.5 1406L1947 1390.5L1925.5 1353.5Z" fill="#D3D3D3" stroke="#F8F8F8" stroke-width="4"/>
<path id="GARAMBULLO" d="M1479 1111L1549 1219.5L1668.5 1098.5L1751.5 1135.5L1821 883.5L1796.5 858H1771L1746.5 892.5L1620.5 945L1595 953L1520 998L1479 1017.5L1456.5 1035L1445 1040L1450.5 1059.5L1462.5 1064.5L1479 1091.5V1111Z" fill="#D3D3D3" stroke="#F8F8F8" stroke-width="4"/>
<path id="ZATHE" d="M2561 1331L2572 1448V1451.5L2605 1443.5H2659.5L2644 1307.5H2630.5L2597.5 1313L2561 1331Z" fill="#D3D3D3" stroke="#F8F8F8" stroke-width="4"/>
<path id="DISCOVERYCENTER" d="M2554.5 1454H2495L2488.5 1387L2499 1373.5L2562 1331L2572 1454H2554.5Z" fill="#ECE2CA" stroke="#F8F8F8" stroke-width="4"/>
<path id="PLAZAZIELO" d="M2407 1438.5L2402.5 1445.5L2411.5 1469L2480.5 1452L2489 1458L2494.5 1452L2489 1387L2466.5 1403L2415 1419.5L2407 1438.5Z" fill="#ECE2CA" stroke="#F8F8F8" stroke-width="4"/>
<path id="BASALTO" d="M2193 1621L2228 1713.5L2327 1655.5L2305 1617.5L2264 1610L2193 1621Z" fill="#D3D3D3" stroke="#F8F8F8" stroke-width="4"/>
<path id="AGUAZUL" d="M2162 1536.5L2193 1621.5L2265 1609.5L2244.5 1570.5L2232 1536.5H2162Z" fill="#D3D3D3" stroke="#F8F8F8" stroke-width="4"/>
<path id="TORREDEPIEDRA1" d="M2144 1485.5L2163 1537H2231.5L2229.5 1490.5L2144 1485.5Z" fill="#D3D3D3" stroke="#F8F8F8" stroke-width="4"/>
<path id="TORREDEPIEDRA2" d="M2123 1425.5L2144 1485L2229.5 1491L2225 1435L2123 1425.5Z" fill="#D3D3D3" stroke="#F8F8F8" stroke-width="4"/>
<path id="LOSOLIVOS" d="M2243 1436L2249.5 1491L2328 1486L2396.5 1472.5L2390.5 1449L2376 1445.5L2366 1436H2243Z" fill="#D3D3D3" stroke="#F8F8F8" stroke-width="4"/>
<path id="MEZQUITE" d="M2251 1491L2284 1527L2334 1541L2401.5 1518.5L2396.5 1504V1471.5L2330 1484.5L2251 1491Z" fill="#D3D3D3" stroke="#F8F8F8" stroke-width="4"/>
<path id="NATURA1" d="M2333 1541L2323.5 1594L2339 1588.5L2407.5 1567.5V1536L2401.5 1519L2333 1541Z" fill="#D3D3D3" stroke="#F8F8F8" stroke-width="4"/>
<path id="DOMINIO" d="M2322.5 1594L2306.5 1616L2327 1653.5L2376.5 1625.5L2396.5 1605L2408 1590.5V1567L2322.5 1594Z" fill="#D3D3D3" stroke="#F8F8F8" stroke-width="4"/>
<path id="PLAZAXENTRICANAHUAC" d="M3090 1149L3081 1203L2972 1139L2996 1094H3008L3090 1149Z" fill="#ECE2CA" stroke="#F8F8F8" stroke-width="4"/>
<path id="AMATISTA" d="M428.5 299L406.5 423.5L586 387.5V375.5L609.5 352L644.5 249.5L609.5 256L548 266L428.5 299Z" fill="#D3D3D3" stroke="#F8F8F8" stroke-width="4"/>
<path id="LUANNA" d="M1133 14H1021L982 179L1016 216L1043.5 234.5L1091.5 221.5L1146 187L1185.5 158.5L1227 132.5L1223.5 72L1238 14H1204.5H1133Z" fill="#D3D3D3" stroke="#F8F8F8" stroke-width="4"/>
<path id="JADE" d="M1018 607L822 790L854.5 816L900 838L942 849L949 842.5L959.5 840L971.5 842.5L1018 808.5L1035.5 794L1054 787.5L1185 634.5L1146.5 555L1100 585L1054 602L1018 607Z" fill="#D3D3D3" stroke="#F8F8F8" stroke-width="4"/>
<path id="NOURA" d="M824 1236L789 1247.5L776.5 1169L753.5 1179L710.5 1169L653 1173.5L641 1164H626.5L561.5 1196.5L475 1104L641 1008.5L667 979.5L704 1005L761.5 1041.5L781 1051L799.5 1054.5L824 1236Z" fill="#D3D3D3" stroke="#F8F8F8" stroke-width="4"/>
<path id="SABINO" d="M536.5 828.5L464 843.5L418.5 848V773L445.5 766.5L468 762L512 744.5L536.5 828.5Z" fill="#D3D3D3" stroke="#F8F8F8" stroke-width="4"/>
<path id="AUREAIOLITA1" d="M568 939L477 956L425 963.5L420 847.5H443L487 841L536 830.5L568 939Z" fill="#D3D3D3" stroke="#F8F8F8" stroke-width="4"/>
<path id="AUREAIOLITA2" d="M591 1034L473.5 1103L427 1052.5L424 960H450L494 953.5L565 939L591 1034Z" fill="#D3D3D3" stroke="#F8F8F8" stroke-width="4"/>
<path id="AZHALA1" d="M270.5 901L291.5 774L309 777V779.5L328 793.5H341.5L355.5 779.5H386L416.5 774L423 913H341.5L270.5 901Z" fill="#D3D3D3" stroke="#F8F8F8" stroke-width="4"/>
<path id="AZHALA2" d="M249 1025L269 901L286.5 904L300 906.5L315.5 909L343 914.5H356.5H423L428 1052.5L319 1040L249 1025Z" fill="#D3D3D3" stroke="#F8F8F8" stroke-width="4"/>
<path id="Vector 133" d="M108 977L207 754L289.5 773.5L248.5 1024.5L108 977Z" fill="#D3D3D3" stroke="#F8F8F8" stroke-width="4"/>
<path id="Vector 134" d="M215 737L239 683.5L259.5 707.5L290.5 667.5L354.5 674.5L338.5 746.5L322.5 751.5L314.5 760L215 737Z" fill="#D3D3D3" stroke="#F8F8F8" stroke-width="4"/>
<path id="ANKARA" d="M367.5 624L340 747L358 762.5H378L467 743L552.5 707.5L591.5 650L619 610.5L641.5 590L625.5 582.5L594.5 562L577.5 535.5L367.5 624Z" fill="#D3D3D3" stroke="#F8F8F8" stroke-width="4"/>
<path id="TURQUESA" d="M560 722.5L514 743L591 1033.5L641.5 1003.5L718.5 914L607 707.5L560 722.5Z" fill="#D3D3D3" stroke="#F8F8F8" stroke-width="4"/>
<path id="LOREDI" d="M768 755.5L673.5 827L609 707L658.5 700.5L678 715.5L716.5 718.5L732 711.5L768 755.5Z" fill="#D3D3D3" stroke="#F8F8F8" stroke-width="4"/>
<path id="FIGUE" d="M768.5 756L675.5 827.5L721 910.5L812 806L768.5 756Z" fill="#D3D3D3" stroke="#F8F8F8" stroke-width="4"/>
<path id="MASSARO" d="M1013 607L820 788L740.5 697L734.5 681L724.5 670.5L745.5 636.5L773 621L818 605L930 603L1013 607Z" fill="#D3D3D3" stroke="#F8F8F8" stroke-width="4"/>
<path id="MALAYA" d="M952.5 585H844L828 394L864 391L888 380.5H906.5L931 371.5L948 368.5L970.5 364.5L985.5 359.5L1010.5 350L1033 344L1038 364.5L1052 406.5L1068.5 436.5L1082 486L1095.5 514.5L1115 524L1136.5 540L1120.5 554.5L1068.5 580L1044 588.5H1010.5L952.5 585Z" fill="#D3D3D3" stroke="#F8F8F8" stroke-width="4"/>
<path id="AGATA" d="M796 393.5H828L843 585.5L713.5 579.5L653 575L617 556L596.5 529L589.5 500V468.5L606 412.5L622 409.5L630 402L636.5 388L683.5 378.5L724 381.5L760 393.5H796Z" fill="#D3D3D3" stroke="#F8F8F8" stroke-width="4"/>
<path id="XIMHAI" d="M402.5 438L369 614.5L367.5 623L577 534.5L573.5 509.5V483.5L579.5 438L593 406.5L586 397.5L402.5 438Z" fill="#D3D3D3" stroke="#F8F8F8" stroke-width="4"/>
<path id="PLAZAXENTRIC" d="M2196.5 722.5L2164 755L2161 757.5L2207.5 805.5L2244 768.5L2196.5 722.5Z" fill="#ECE2CA" stroke="#F8F8F8" stroke-width="4"/>
<path id="UNK78" d="M767.5 1285L729 1322.5V1326.5L753.5 1332.5H767.5H802L818.5 1304L847 1293.5L875 1296L891.5 1318L895 1320L908 1324H925.5L950.5 1332.5L964.5 1342L991 1367.5L999 1363.5L981.5 1245L978.5 1244H957H904.5L855 1248L805 1260.5L767.5 1285Z" fill="#62BD4F" stroke="#456643" stroke-width="4"/>
</g>
</g>
<defs>
<filter id="filter0_d_21_1470" x="1635.08" y="1263.47" width="281.029" height="135.292" filterUnits="userSpaceOnUse" color-interpolation-filters="sRGB">
<feFlood flood-opacity="0" result="BackgroundImageFix"/>
<feColorMatrix in="SourceAlpha" type="matrix" values="0 0 0 0 0 0 0 0 0 0 0 0 0 0 0 0 0 0 127 0" result="hardAlpha"/>
<feOffset dy="4"/>
<feGaussianBlur stdDeviation="2"/>
<feComposite in2="hardAlpha" operator="out"/>
<feColorMatrix type="matrix" values="0 0 0 0 0 0 0 0 0 0 0 0 0 0 0 0 0 0 0.25 0"/>
<feBlend mode="normal" in2="BackgroundImageFix" result="effect1_dropShadow_21_1470"/>
<feBlend mode="normal" in="SourceGraphic" in2="effect1_dropShadow_21_1470" result="shape"/>
</filter>
</defs>
</svg>
