<svg width="3307" height="2108" viewBox="0 0 3307 2108" fill="none" xmlns="http://www.w3.org/2000/svg">
<g filter="url(#filter0_d_21_1471)">
<path d="M879 2044.5L525 1973L516 1719.5H553.5H565L560 1706.5L520.5 1662.5L565 1427L628 1291L623 1280L424.5 1061.5L311 1054L92.5 985.5L238 656.5L261.5 689L288 656.5L349 662.5L392 426.5L421 291L593 245L965 182.5H980L1013.5 219L1026.5 223L1040.5 233V240H1049.5L1110 215L1176 169L1211.5 144L1258.5 138H1316H1337L1343.5 140.5L1359 126L1396.5 118.5L1406 115L1420 121L1438.5 113H1443V81L1410.5 59H1414L1527.5 56L1631.5 79.5L1699 81L1838 69.5L2005 231L2173 366L2868 743.5L2784 899L2977.5 1038H2983.5L2995 1039L3010 1043L3014.5 1046.5L3019 1054L3024.5 1064L3026 1074.5L3028.5 1077.5L3101 1119.5H3151.5L3159 1110L3178 1137.5L3176 1151L3146 1176L3159 1253L3151.5 1287L3110 1356L3005.5 1460L2866.5 1496L2851.5 1466.5L2763.5 1496L2550 1598.5L2101 1807.5L2057.5 1781L1872 1863L1486.5 1921.5L1302 2019.5L1320.5 1620H1310.5L1268.5 1613.5L1204.5 1587L1167.5 1552.5L1078 1532.5H972L962.5 1576L983.5 1685L1098.5 1782.5L1121.5 1776L1162.5 1796L1126.5 1977H1085.5L1040 2002L1022.5 1984.5L972 1988.5L962.5 1970L932.5 1977L922.5 2011.5L879 2044.5Z" fill="#C9C8BE"/>
</g>
<path d="M1315 1995.5L1326 1609.5L1369 1613.5L1419.5 1591.5V1725L1377.5 1757.5L1372.5 1833.5H1435.5L1467 1821H1592L1711.5 1748L1746.5 1765.5L1909 1748L1984 1744L2025 1765.5L2053.5 1758.5V1760L2057.5 1765.5L2160 1756L2231 1712L2359 1636.5L2393 1608.5L2409.5 1588.5V1536L2402.5 1519.5L2398.5 1487.5V1471.5L2416.5 1463.5L2481.5 1451L2486 1455H2554L2574.5 1451L2604.5 1443H2658L2674 1426.5L2748.5 1422.5L2818.5 1443L2854 1432.5L2868 1412.5L2899.5 1384.5L2962 1353H2982L3006.5 1315L3051.5 1263L3063 1210.5L3082 1205.5L3090 1148L3170 1140V1148L3139.5 1173.5V1201.5L3147 1251L3134.5 1297L3000.5 1451L2868 1477.5L2854 1451L2752 1487.5L2101.5 1796.5L2057.5 1769.5L1866 1851L1484 1910L1315 1995.5Z" fill="url(#paint0_linear_21_1471)" stroke="#456643" stroke-width="4"/>
<path d="M3086 1131V1132.5C3086 1138.02 3090.48 1142.5 3096 1142.5H3127.15C3127.71 1142.5 3128.28 1142.45 3128.84 1142.36L3159.74 1137.04C3159.91 1137.01 3160.09 1137 3160.26 1137H3160.39C3162.79 1137 3164.22 1134.33 3162.89 1132.34V1132.34C3162.33 1131.5 3161.4 1131 3160.39 1131H3153H3137.5H3120.5H3093.33C3091.35 1131 3091.05 1133.85 3092.99 1134.26V1134.26C3094.89 1134.66 3095.79 1132.02 3094.05 1131.17L3064 1116.5" stroke="#9A9A9A" stroke-width="12"/>
<ellipse cx="3194" cy="1120.5" rx="37" ry="37.5" fill="#9A9A9A"/>
<ellipse cx="2992" cy="1073.5" rx="37" ry="37.5" fill="#9A9A9A"/>
<circle cx="334.5" cy="767.5" r="28.5" fill="#9A9A9A"/>
<path d="M939.5 1663.5L903.5 1635.5L896.5 1621L887 1598L889.5 1578.5L908 1518.5L919 1499.5L931 1453L929 1425.5L919 1396.5L904 1383L887 1378.5H856.5L837 1380L830.5 1392L807.5 1410L788 1443.5L767.5 1473L742.5 1550.5L737.5 1607L713 1670.5L698 1660L679.5 1666H657.5L647.5 1648.5V1598V1522L657.5 1468L682 1388.5L733.5 1300L800 1255.5L874.5 1233.5L977 1242.5L1056 1255.5L1139 1319L1238.5 1344.5H1347L1588.5 1329.5L1615.5 1319L1596 1281L1561.5 1242.5L1499 1162L1472.5 1112L1445.5 1057.5L1425 998.5V948.5V873.5L1445.5 799.5L1472.5 705L1505.5 595L1521 510.5L1572 274.5" stroke="#9A9A9A" stroke-width="35"/>
<path d="M214.5 747L330.5 774L445.5 761L539 720L601.5 705L676.5 679.5L720 660L745.5 631L821 590H876H1071.5L1168.5 527.5L1321.5 431.5H1380.5L1444 443L1524.5 462L1681.5 498L1784 431.5L1821 392L1853 344.5V272L1868 260.5L1892.5 279.5H1915.5L1945 314L2181 554L2225.5 647.5L2245 620.5H2265.5L2305 637L2339.5 660L2348.5 698.5L2363.5 719L2466 733L2689.5 862L2913 1003.5L3012.5 1092L3093 1139M2993 1085.5L2901.5 1214.5L2697 1284.5L2552.5 1328L2478.5 1365L2458 1407L2407 1418.5H2306L1931 1407L1823.5 1394.5L1726.5 1365L1638.5 1316.5L1625.5 1293.5L1616.5 1278" stroke="#9A9A9A" stroke-width="35"/>
<path d="M1632 1283.5L1704.5 1256.5H1750.5L1823.5 1277L1905 1310L1923 1370L1934.5 1395.5H1923H1905" stroke="#9A9A9A" stroke-width="35"/>
<path d="M811 601L651.5 585L597 557.5L585.5 505V471L597 403L617.5 382.5H674.5L708.5 359.5M706 676.5L811 785L859.5 829L968 867.5H1052L1098.5 892L1178.5 911.5L1221 949L1264 999.5L1337.5 1037L1395.5 1052.5L1459 1090V1110.5V1119.5L1443.5 1110.5H1435.5L1429 1090L1417.5 1078M2498 1352L2484 1362L2503 1318L2498 1293V1243.5L2527 1238.5H2568.5H2597.5L2629.5 1243.5L2654.5 1227.5H2689L2698 1252.5L2717 1267.5" stroke="#9A9A9A" stroke-width="35"/>
<path d="M2387.5 1411L2326.5 1166.5L2309.5 1084.5L2268.5 936.5L2245.5 863L2196 799L2123.5 736.5L1968.5 606L1885 526.5L1825.5 464L1799.5 437L1684.5 306.5" stroke="#9A9A9A" stroke-width="35"/>
<path d="M651 599L617 624.5L600 667L576 699.5V711" stroke="#9A9A9A" stroke-width="35"/>
<path d="M1209 934L1192 821.5L1161 799H1105.5H1050L1017.5 821.5L990.5 843L959 871.5" stroke="#9A9A9A" stroke-width="35"/>
<path d="M2250 850L2349 721" stroke="#9A9A9A" stroke-width="35"/>
<path d="M2231.5 631.5L2105 743.491M2092 755L2105 743.491M2105 743.491L2092 814.5L2122 851.5L2166 868.5H2218.5L2231.5 860L2217 844.5" stroke="#9A9A9A" stroke-width="35"/>
<path d="M1316 428.5L1288 295.5L1253.5 210.5V190.5" stroke="#9A9A9A" stroke-width="35"/>
<circle cx="963.5" cy="866.5" r="28" fill="#9A9A9A" stroke="#9A9A9A"/>
<circle cx="612.5" cy="385.5" r="28" fill="#9A9A9A" stroke="#9A9A9A"/>
<circle cx="1202.5" cy="941.5" r="28" fill="#9A9A9A" stroke="#9A9A9A"/>
<circle cx="1317.5" cy="432.5" r="28" fill="#9A9A9A" stroke="#9A9A9A"/>
<circle cx="1289.5" cy="312.5" r="28" fill="#9A9A9A" stroke="#9A9A9A"/>
<circle cx="1782.5" cy="408.5" r="28" fill="#9A9A9A" stroke="#9A9A9A"/>
<circle cx="1259.5" cy="215.5" r="28" fill="#9A9A9A" stroke="#9A9A9A"/>
<path d="M729.5 701.5C729.5 709.177 725.352 716.166 718.57 721.253C711.788 726.339 702.396 729.5 692 729.5C681.604 729.5 672.212 726.339 665.43 721.253C658.648 716.166 654.5 709.177 654.5 701.5C654.5 693.823 658.648 686.834 665.43 681.747C672.212 676.661 681.604 673.5 692 673.5C702.396 673.5 711.788 676.661 718.57 681.747C725.352 686.834 729.5 693.823 729.5 701.5Z" fill="#9A9A9A" stroke="#9A9A9A"/>
<path d="M2754.5 879C2754.5 896.32 2737.79 910.5 2717 910.5C2696.21 910.5 2679.5 896.32 2679.5 879C2679.5 861.68 2696.21 847.5 2717 847.5C2737.79 847.5 2754.5 861.68 2754.5 879Z" fill="#9A9A9A" stroke="#9A9A9A"/>
<path d="M979.5 1682C979.5 1699.35 963.88 1713.5 944.5 1713.5C925.12 1713.5 909.5 1699.35 909.5 1682C909.5 1664.65 925.12 1650.5 944.5 1650.5C963.88 1650.5 979.5 1664.65 979.5 1682Z" fill="#9A9A9A" stroke="#9A9A9A"/>
<path d="M1648.5 1299C1648.5 1316.32 1631.79 1330.5 1611 1330.5C1590.21 1330.5 1573.5 1316.32 1573.5 1299C1573.5 1281.68 1590.21 1267.5 1611 1267.5C1631.79 1267.5 1648.5 1281.68 1648.5 1299Z" fill="#9A9A9A" stroke="#9A9A9A"/>
<path d="M1356.5 134L1347.5 144L1373 200L1369.5 309H1422L1497.5 275L1547 285.5L1639.5 299.5V309L1678.5 316L1783.5 184L1752.5 159L1693.5 137H1533L1449 82V119.5L1419 128.5L1408 119.5L1356.5 134Z" fill="#A18546"/>
<path d="M664.5 246L625 364L653 369.5L719 349L726 317.5L729.5 304.5L745 291L765.5 289L778.5 281L804.5 273H834.5L854 259.5L891 252.5H938.5L963.5 248L987.5 255.5V245.5L994 231L1010 224.5L975.5 190L664.5 246Z" fill="#ECE2CA"/>
<path d="M1711.94 267.211L1687.97 283.329C1685.63 284.906 1682.52 284.715 1680.38 282.865C1678.13 280.909 1674.8 280.821 1672.44 282.655L1667.66 286.372C1664.79 288.61 1660.92 289.105 1657.57 287.663L1593.39 260.037C1590.24 258.678 1586.6 260.339 1585.55 263.615C1584.67 266.406 1581.84 268.101 1578.96 267.569L1558.42 263.778C1554.41 263.038 1551.5 259.539 1551.5 255.459V251.554C1551.5 249.039 1553.54 247 1556.05 247C1557.3 247 1558.49 246.492 1559.35 245.594L1560.7 244.174C1564.88 239.809 1563.75 232.667 1558.44 229.797L1549.77 225.117C1546.27 223.224 1541.97 223.592 1538.84 226.053L1518.35 242.157C1517.1 243.135 1515.28 242.8 1514.47 241.443C1513.68 240.126 1511.93 239.763 1510.68 240.656L1507.6 242.858C1506.56 243.601 1505.31 244 1504.04 244H1501.5C1500.51 244 1499.53 243.804 1498.62 243.423C1495.82 242.259 1494 239.528 1494 236.5V236.379C1494 234.226 1494.9 232.172 1496.49 230.717L1497.77 229.545C1502.16 225.519 1502.08 218.571 1497.6 214.647L1496.83 213.974C1495 212.379 1492.66 211.5 1490.24 211.5H1483C1481.36 211.5 1479.74 211.096 1478.29 210.324L1475.32 208.737C1473.8 207.926 1472.51 206.736 1471.59 205.282L1464.59 194.277C1463.24 192.169 1461.16 190.64 1458.75 189.99L1450.78 187.844C1449.93 187.616 1449.06 187.5 1448.18 187.5H1442.63C1441.88 187.5 1441.13 187.584 1440.4 187.751L1425.07 191.257C1424.36 191.418 1423.63 191.5 1422.91 191.5C1419.82 191.5 1416.92 190.03 1415.1 187.543L1414.54 186.78C1413.22 184.979 1411.33 183.671 1409.18 183.067L1402.36 181.149C1398.9 180.174 1396.5 177.011 1396.5 173.409C1396.5 169.435 1393.6 166.058 1389.67 165.459L1346.41 158.867C1344.83 158.626 1343.32 158.009 1342.03 157.068L1341.13 156.413C1339.42 155.17 1337.36 154.5 1335.25 154.5H1253.07C1252.03 154.5 1251 154.662 1250.01 154.981L1223.19 163.615C1222.4 163.871 1221.64 164.224 1220.94 164.668L1187 186L1108.32 238.451C1107.78 238.816 1107.19 239.126 1106.58 239.377L1082 249.5L1057.26 256.444C1054.94 257.096 1052.44 256.444 1050.74 254.738C1047.33 251.329 1048.55 245.54 1053.04 243.796L1086 231L1110.12 220.87C1110.71 220.624 1111.27 220.323 1111.79 219.97L1159 188.5L1207.22 155.381C1208.07 154.797 1209 154.348 1209.99 154.05L1234.31 146.708C1234.77 146.569 1235.24 146.464 1235.71 146.393L1260.53 142.646C1261.18 142.549 1261.83 142.515 1262.48 142.545L1349 146.5L1398.75 153.871C1400.99 154.202 1403 152.468 1403 150.205C1403 148.159 1404.66 146.5 1406.71 146.5H1412.5H1422.07C1423.35 146.5 1424.61 146.257 1425.79 145.785L1432.21 143.215C1433.39 142.743 1434.65 142.5 1435.93 142.5H1437.55C1440.09 142.5 1442.53 143.467 1444.38 145.205L1448.1 148.684C1449.02 149.553 1450.11 150.238 1451.29 150.701L1456.73 152.829C1459.44 153.89 1462.48 153.717 1465.05 152.354L1468.54 150.506C1469.18 150.17 1469.78 149.766 1470.33 149.302L1479.7 141.366C1481.51 139.838 1483.8 139 1486.16 139H1490.38C1492.72 139 1494.98 139.82 1496.78 141.318L1502.36 145.963C1502.78 146.32 1503.18 146.713 1503.55 147.137L1503.77 147.399C1505.21 149.078 1506 151.215 1506 153.425C1506 154.139 1506.08 154.851 1506.25 155.546L1507.92 162.646C1507.97 162.881 1508 163.122 1508 163.364C1508 165.096 1509.4 166.5 1511.14 166.5H1518.05C1519.97 166.5 1521.86 165.943 1523.48 164.896L1526.38 163.018C1528.39 161.716 1530.81 161.18 1533.18 161.508L1539.41 162.368C1542.32 162.769 1545.26 161.872 1547.45 159.914L1550.65 157.048C1552.49 155.407 1554.86 154.5 1557.32 154.5H1563H1585.01C1586.64 154.5 1588.26 154.901 1589.7 155.669L1601.3 161.831C1602.74 162.599 1604.36 163 1605.99 163H1608.17C1610.33 163 1612.44 162.298 1614.17 161L1622.83 154.5C1624.56 153.202 1626.67 152.5 1628.83 152.5H1648L1688.62 154.458C1689.2 154.486 1689.79 154.566 1690.36 154.696L1716.9 160.749C1717.63 160.916 1718.34 161.164 1719.02 161.489L1742.1 172.606C1743.89 173.468 1746.01 173.301 1747.64 172.17C1749.87 170.63 1752.88 170.929 1754.76 172.875L1765.5 184L1778.43 196.498C1779.78 197.806 1781.48 198.706 1783.32 199.093L1798.48 202.285C1799.16 202.428 1799.85 202.5 1800.54 202.5H1871.38C1872.45 202.5 1873.52 202.673 1874.54 203.013L1885.63 206.71C1887.19 207.229 1888.85 207.357 1890.46 207.083L1916 202.755C1916.99 202.586 1917.96 202.267 1918.86 201.808L1939.59 191.259C1943.42 189.312 1948.07 190.025 1951.13 193.032L1986.71 227.929C1989.48 230.64 1986.67 235.225 1983 234L1970.34 228.76C1969.12 228.258 1967.82 228 1966.51 228H1955.59C1953.27 228 1951.02 227.194 1949.23 225.719L1938.77 217.105C1936.39 215.146 1933.24 214.393 1930.23 215.065L1892.3 223.539C1889.56 224.151 1886.69 223.582 1884.39 221.972L1875.41 215.69C1873.84 214.587 1871.98 213.962 1870.06 213.889L1806.5 211.5H1786.03C1784.05 211.5 1782.12 210.916 1780.48 209.821L1770.38 203.088C1769.8 202.697 1769.25 202.245 1768.76 201.741L1752.81 185.35C1751.95 184.458 1750.92 183.736 1749.78 183.22L1731.4 174.864C1730.2 174.319 1728.82 174.366 1727.66 174.989C1725.28 176.273 1724.71 179.442 1726.5 181.476L1732.42 188.2C1733.46 189.383 1734.2 190.796 1734.6 192.323L1738.69 208.278C1738.89 209.089 1739 209.924 1739 210.762V226.101C1739 227.356 1738.76 228.599 1738.3 229.767L1733.15 242.855C1732.72 243.943 1732.1 244.948 1731.33 245.823L1713.85 265.546C1713.28 266.179 1712.64 266.739 1711.94 267.211Z" fill="#317377" stroke="#2B5B5F" stroke-width="4"/>
<path d="M1461 782.5L1434 854L1436.5 860.5L1446.5 866L1477.5 881.5L1489 886.5H1503L1508.5 893L1526 909.5L1546.5 924L1569.5 934.5L1589.5 942.5H1604.5H1626.5L1746 893L1772.5 858H1798L1824 886.5L1884.5 985L1935 1036.5L1970.5 1063L2007.5 1078L2017 1095.5L2096 1117.5H2113H2130L2189 1112.5L2245.5 1103L2295 1089.5L2311.5 1080.5L2335.5 1098.5L2527 1139L2565 1123L2608 1112.5L2630 1105.5L2663 1083L2715.5 1080.5L2725.5 1075L2595 987L2474.5 953L2382.5 987L2298 1010L2274.5 1006L2245.5 998.5H2228L2173.5 994.5H2122H2099.5L2069.5 991.5H2031.5L2024.5 976L2007.5 944.5L1967 879L1960 858L1927.5 829.5L1889 791.5L1846 760.5L1841 752.5V748L1827 725L1818 680.5L1808 661V651L1818 644V631L1827 619.5L1890.5 550.5L1879.5 540L1801 576.5L1780.5 604.5H1769.5L1745 616.5L1697 631H1655L1637.5 639.5L1593.5 631L1558.5 635L1510 653.5L1503.5 667.5L1493.5 677V689.5L1487 718.5L1461 782.5Z" fill="url(#paint1_linear_21_1471)" stroke="#456643" stroke-width="4"/>
<path d="M1345 721.5L1465 736L1483.5 682L1476 656L1450.5 640.5L1412.5 626.5L1354.5 610.5L1316 581L1263 542L1223.5 523.5L1215 504.5L1148.5 553L1188 636.5L1206.5 661L1277.5 699.5L1290.5 711L1345 721.5Z" fill="#609156" stroke="#456643" stroke-width="4"/>
<path d="M1209.5 489L1138.5 538.5L1117.5 523L1097.5 515.5L1082 478.5L1069 432L1052.5 405L1035 344L971 364L931 369.5L905 381.5H887L863.5 392.5H760L724 381.5L718.5 377L713.5 369.5L728.5 304L744.5 293.5L768 287L779 280.5L809 273H829H836L848.5 263.5L859 257.5H879L896.5 251H912H943L965.5 248L986 257.5L988 251V245L994 233L1005.5 226H1016.5L1027 229L1035 237L1043 255.5H1052.5H1062.5L1073.5 251L1115.5 233L1153.5 207.5L1191.5 180.5L1218 165.5L1239 157.5L1258.5 154L1306.5 151.5L1345.5 157.5L1336 172.5L1274.5 196L1233.5 201L1115.5 287L1128.5 299L1138.5 315.5L1153.5 372.5L1166 396.5V419L1176.5 433.5L1181 455L1209.5 489Z" fill="url(#paint2_linear_21_1471)" stroke="#456643" stroke-width="4"/>
<path d="M1568 732.646L1509.93 866.071C1508.76 868.76 1506.1 870.5 1503.17 870.5C1502.72 870.5 1502.28 870.46 1501.84 870.379L1470.39 864.62C1468.19 864.218 1466.19 863.094 1464.71 861.427L1454.9 850.391C1452.49 847.68 1451.74 843.878 1452.93 840.453L1458.5 824.5L1519.21 700.137C1520 698.523 1521.64 697.5 1523.43 697.5C1524.45 697.5 1525.44 697.17 1526.25 696.56L1534.33 690.5C1536.06 689.202 1538.17 688.5 1540.33 688.5H1553.13C1556.21 688.5 1559.11 689.913 1561 692.331L1569.79 703.548C1571.52 705.748 1572.24 708.57 1571.79 711.328L1568.7 730.266C1568.57 731.086 1568.33 731.885 1568 732.646Z" fill="#157A00" stroke="#184E06" stroke-width="4"/>
<circle cx="959.799" cy="864.799" r="12" transform="rotate(44.7286 959.799 864.799)" fill="#62BD4F" stroke="#456643" stroke-width="4"/>
<circle cx="334.799" cy="770.799" r="12" transform="rotate(44.7286 334.799 770.799)" fill="#62BD4F" stroke="#456643" stroke-width="4"/>
<path d="M726.971 692.88C726.814 696.254 724.072 699.645 718.755 702.188C713.522 704.691 706.251 706.112 698.201 705.737C690.151 705.362 683.043 703.27 678.067 700.292C673.009 697.265 670.595 693.633 670.752 690.259C670.909 686.885 673.651 683.494 678.968 680.95C684.201 678.447 691.472 677.026 699.522 677.401C707.572 677.777 714.68 679.868 719.656 682.847C724.714 685.874 727.128 689.506 726.971 692.88Z" fill="#62BD4F" stroke="#456643" stroke-width="4"/>
<path d="M1467.2 1110.17C1465.25 1112.14 1461.43 1112.67 1456.09 1110.89C1450.89 1109.15 1444.86 1105.37 1439.34 1099.9C1433.82 1094.43 1429.98 1088.44 1428.2 1083.26C1426.36 1077.93 1426.86 1074.11 1428.81 1072.14C1430.76 1070.17 1434.58 1069.64 1439.92 1071.42C1445.12 1073.16 1451.15 1076.94 1456.67 1082.41C1462.19 1087.88 1466.02 1093.87 1467.81 1099.05C1469.65 1104.38 1469.15 1108.2 1467.2 1110.17Z" fill="#62BD4F" stroke="#456643" stroke-width="4"/>
<circle cx="1614.8" cy="1292.8" r="12" transform="rotate(44.7286 1614.8 1292.8)" fill="#62BD4F" stroke="#456643" stroke-width="4"/>
<circle cx="1204.8" cy="941.799" r="12" transform="rotate(44.7286 1204.8 941.799)" fill="#62BD4F" stroke="#456643" stroke-width="4"/>
<circle cx="1287.8" cy="307.799" r="12" transform="rotate(44.7286 1287.8 307.799)" fill="#62BD4F" stroke="#456643" stroke-width="4"/>
<circle cx="1315.8" cy="430.799" r="12" transform="rotate(44.7286 1315.8 430.799)" fill="#62BD4F" stroke="#456643" stroke-width="4"/>
<circle cx="1256.8" cy="213.799" r="12" transform="rotate(44.7286 1256.8 213.799)" fill="#62BD4F" stroke="#456643" stroke-width="4"/>
<circle cx="1535.11" cy="451.821" r="8.68783" transform="rotate(44.7286 1535.11 451.821)" fill="#62BD4F" stroke="#456643" stroke-width="4"/>
<circle cx="1776.11" cy="406.115" r="8.68783" transform="rotate(44.7286 1776.11 406.115)" fill="#62BD4F" stroke="#456643" stroke-width="4"/>
<circle cx="1428.11" cy="386.115" r="8.68783" transform="rotate(44.7286 1428.11 386.115)" fill="#62BD4F" stroke="#456643" stroke-width="4"/>
<circle cx="951.799" cy="1681.8" r="12" transform="rotate(44.7286 951.799 1681.8)" fill="#62BD4F" stroke="#456643" stroke-width="4"/>
<circle cx="1926.8" cy="1398.8" r="12" transform="rotate(44.7286 1926.8 1398.8)" fill="#62BD4F" stroke="#456643" stroke-width="4"/>
<circle cx="2234.8" cy="858.799" r="12" transform="rotate(44.7286 2234.8 858.799)" fill="#62BD4F" stroke="#456643" stroke-width="4"/>
<circle cx="2113.8" cy="733.799" r="12" transform="rotate(44.7286 2113.8 733.799)" fill="#62BD4F" stroke="#456643" stroke-width="4"/>
<circle cx="2391.17" cy="1418.16" r="13.9273" transform="rotate(44.7286 2391.17 1418.16)" fill="#62BD4F" stroke="#456643" stroke-width="4"/>
<circle cx="2501.52" cy="1346.52" r="13.9273" transform="rotate(44.7286 2501.52 1346.52)" fill="#62BD4F" stroke="#456643" stroke-width="4"/>
<circle cx="2991.52" cy="1071.52" r="13.9273" transform="rotate(44.7286 2991.52 1071.52)" fill="#62BD4F" stroke="#456643" stroke-width="4"/>
<circle cx="2716.52" cy="879.524" r="13.9273" transform="rotate(44.7286 2716.52 879.524)" fill="#62BD4F" stroke="#456643" stroke-width="4"/>
<circle cx="3193.52" cy="1120.52" r="13.9273" transform="rotate(44.7286 3193.52 1120.52)" fill="#62BD4F" stroke="#456643" stroke-width="4"/>
<path d="M1505.5 851L1462.5 832L1459 842L1473.5 857L1505.5 864.5V851Z" stroke="black" stroke-width="4"/>
<path d="M1550 888.5L1535.74 877.089L1540.26 862.301C1540.42 861.768 1540.63 861.249 1540.87 860.751L1548.94 844.611C1549.64 843.223 1550 841.692 1550 840.139V809.701C1550 806.441 1551.59 803.386 1554.26 801.514L1587.48 778.212C1588.16 777.739 1588.77 777.185 1589.31 776.561L1595.87 768.969C1597.25 767.364 1598.09 765.362 1598.27 763.249L1600.14 740.448C1600.37 737.617 1601.79 735.019 1604.05 733.301L1624.82 717.536C1626.56 716.215 1628.68 715.5 1630.87 715.5H1649.26C1649.75 715.5 1650.25 715.463 1650.73 715.39L1681.02 710.87C1682.65 710.627 1684.31 710.79 1685.86 711.343L1686.77 711.667C1692.45 713.698 1695.06 720.268 1692.3 725.643L1689.23 731.65C1687.82 734.395 1685.23 736.337 1682.2 736.915L1666.93 739.823C1666.31 739.941 1665.68 740 1665.06 740H1645.32C1642.56 740 1639.93 741.138 1638.04 743.146L1635.72 745.612C1633.97 747.467 1633 749.918 1633 752.466V766.016C1633 767.647 1632.6 769.254 1631.84 770.695L1621.17 790.843C1620.09 792.884 1618.34 794.489 1616.21 795.383L1597.43 803.271C1595.52 804.071 1593.91 805.44 1592.82 807.191L1582.84 823.159C1582.28 824.048 1581.87 825.018 1581.62 826.034L1576.35 847.088C1575.51 850.452 1572.99 853.14 1569.68 854.192L1565.22 855.613C1564.41 855.869 1563.57 856 1562.72 856H1561.72C1557.73 856 1554.5 859.232 1554.5 863.219C1554.5 865.009 1555.16 866.735 1556.37 868.062L1561.42 873.643C1563.08 875.482 1564 877.873 1564 880.352V886.5C1564 887.798 1563.58 889.061 1562.8 890.1C1561.67 891.611 1559.89 892.5 1558 892.5H1557.31C1555.5 892.5 1553.75 891.836 1552.4 890.635L1550 888.5Z" fill="#157A00"/>
<path d="M1535 876.5L1550 888.5L1552.4 890.635C1553.75 891.836 1555.5 892.5 1557.31 892.5H1558C1559.89 892.5 1561.67 891.611 1562.8 890.1V890.1C1563.58 889.061 1564 887.798 1564 886.5V880.352C1564 877.873 1563.08 875.482 1561.42 873.643L1556.37 868.062C1555.16 866.735 1554.5 865.009 1554.5 863.219V863.219C1554.5 859.232 1557.73 856 1561.72 856H1562.72C1563.57 856 1564.41 855.869 1565.22 855.613L1569.68 854.192C1572.99 853.14 1575.51 850.452 1576.35 847.088L1581.62 826.034C1581.87 825.018 1582.28 824.048 1582.84 823.159L1592.82 807.191C1593.91 805.44 1595.52 804.071 1597.43 803.271L1616.21 795.383C1618.34 794.489 1620.09 792.884 1621.17 790.843L1631.84 770.695C1632.6 769.254 1633 767.647 1633 766.016V752.466C1633 749.918 1633.97 747.467 1635.72 745.612L1638.04 743.146C1639.93 741.138 1642.56 740 1645.32 740H1665.06C1665.68 740 1666.31 739.941 1666.93 739.823L1682.2 736.915C1685.23 736.337 1687.82 734.395 1689.23 731.65L1692.3 725.643C1695.06 720.268 1692.45 713.698 1686.77 711.667L1685.86 711.343C1684.31 710.79 1682.65 710.627 1681.02 710.87L1650.73 715.39C1650.25 715.463 1649.75 715.5 1649.26 715.5H1630.87C1628.68 715.5 1626.56 716.215 1624.82 717.536L1604.05 733.301C1601.79 735.019 1600.37 737.617 1600.14 740.448L1598.27 763.249C1598.09 765.362 1597.25 767.364 1595.87 768.969L1589.31 776.561C1588.77 777.185 1588.16 777.739 1587.48 778.212L1554.26 801.514C1551.59 803.386 1550 806.441 1550 809.701V840.139C1550 841.692 1549.64 843.223 1548.94 844.611L1540.87 860.751C1540.63 861.249 1540.42 861.768 1540.26 862.301L1535 879.5" stroke="#184E06" stroke-width="4"/>
<path d="M1600.5 847L1596.72 852.568C1593.63 857.124 1595.05 863.347 1599.82 866.105C1600.27 866.368 1600.7 866.668 1601.11 867.002L1609.41 873.86C1611.08 875.243 1613.19 876 1615.36 876C1618.83 876 1622.01 874.078 1623.63 871.009L1626 866.5L1630.5 858.997C1631.48 857.366 1632.9 856.048 1634.6 855.198L1648.23 848.384C1650.04 847.482 1651.52 846.057 1652.5 844.296L1658.14 834.144C1659.91 830.969 1663.25 829 1666.88 829H1680.59C1683.97 829 1687.11 827.297 1688.96 824.472L1694.5 816L1716.64 789.795C1718.16 787.99 1719 785.704 1719 783.341V765.5V763.198C1719 758.431 1715.64 754.327 1710.96 753.392L1707.01 752.603C1703.59 751.918 1700.06 753.068 1697.69 755.638L1657.29 799.55C1656.12 800.828 1654.63 801.778 1652.98 802.306L1634.26 808.279C1632.77 808.753 1631.42 809.569 1630.3 810.66L1609.15 831.376C1608.39 832.121 1607.75 832.982 1607.26 833.927L1600.5 847Z" fill="#157A00" stroke="#184E06" stroke-width="4"/>
<path d="M1656 871.5L1651.72 879.038C1648.05 885.491 1652.71 893.5 1660.13 893.5C1661.69 893.5 1663.22 893.126 1664.6 892.408L1675 887L1681.02 883.104C1682.64 882.057 1684.53 881.5 1686.45 881.5H1710.24C1711.08 881.5 1711.91 881.395 1712.72 881.188L1729.02 877.019C1731.57 876.366 1733.76 874.734 1735.11 872.476L1740.57 863.375C1741.51 861.821 1742 860.043 1742 858.23V847.14C1742 843.116 1744.41 839.485 1748.12 837.923L1750.43 836.952C1751.14 836.652 1751.82 836.27 1752.44 835.813L1766.92 825.25C1768.9 823.801 1770.28 821.671 1770.8 819.268L1774.28 803.036C1774.43 802.347 1774.5 801.645 1774.5 800.941V783.5V779.023C1774.5 775.144 1771.36 772 1767.48 772C1765.01 772 1762.72 773.294 1761.45 775.41L1753.18 789.197C1752.09 791.018 1750.44 792.444 1748.49 793.268L1745.22 794.643C1743.14 795.521 1741.41 797.083 1740.33 799.071L1734.22 810.261C1733.42 811.73 1733 813.377 1733 815.05V817.472C1733 818.81 1732.73 820.135 1732.21 821.368L1728.75 829.555C1727.94 831.471 1726.55 833.086 1724.78 834.176L1715.72 839.747C1714.91 840.246 1714.03 840.627 1713.11 840.878L1702.63 843.737C1699.9 844.483 1698 846.966 1698 849.8C1698 851.81 1697.04 853.7 1695.41 854.882L1691.38 857.814C1688.65 859.802 1685.1 860.275 1681.94 859.072L1674.19 856.12C1669.5 854.334 1664.22 856.297 1661.83 860.71L1656 871.5Z" fill="#157A00" stroke="#184E06" stroke-width="4"/>
<path d="M1993.15 1020.28L1994.87 1030.36C1995.55 1034.38 1993.74 1038.4 1990.28 1040.54L1990.01 1040.71C1987.19 1042.45 1983.69 1042.69 1980.66 1041.33L1972.98 1037.89C1971.68 1037.3 1970.51 1036.44 1969.57 1035.37L1962.99 1027.89C1961.09 1025.74 1958.35 1024.5 1955.48 1024.5H1951.48C1948.93 1024.5 1946.46 1023.52 1944.61 1021.76L1938.77 1016.23C1938.26 1015.74 1937.8 1015.21 1937.4 1014.63L1932.98 1008.19C1932.66 1007.73 1932.38 1007.25 1932.15 1006.74L1919.97 980.517C1919.66 979.841 1919.27 979.203 1918.81 978.613L1912.33 970.217C1911.45 969.085 1910.35 968.155 1909.08 967.487L1894.75 959.923C1893.59 959.314 1892.57 958.484 1891.73 957.481L1884.92 949.31C1883.67 947.803 1882.88 945.961 1882.67 944.012L1880.99 928.902C1880.68 926.099 1879.2 923.557 1876.91 921.904L1862.85 911.731C1859.36 909.205 1857.88 904.726 1859.17 900.617L1860.79 895.489C1862.11 891.328 1865.97 888.5 1870.33 888.5H1871.88C1872.95 888.5 1874.02 888.673 1875.04 889.013L1879.79 890.597C1882.47 891.49 1884.65 893.476 1885.78 896.064L1891.07 908.11C1892.29 910.885 1894.7 912.958 1897.63 913.746L1902.37 915.022C1904.71 915.652 1906.74 917.113 1908.09 919.131L1922.25 940.375C1922.75 941.122 1923.34 941.798 1924.02 942.385L1930.5 948L1938.85 954.031C1939.28 954.343 1939.69 954.689 1940.07 955.067L1944.57 959.571C1946.45 961.446 1947.5 963.99 1947.5 966.642V974.73C1947.5 978.819 1949.99 982.496 1953.79 984.014L1956.38 985.051C1958.71 985.983 1960.6 987.757 1961.68 990.021L1965.19 997.359C1965.4 997.786 1965.63 998.198 1965.89 998.591L1971.53 1007.05C1973.39 1009.83 1976.51 1011.5 1979.85 1011.5H1981.01C1981.67 1011.5 1982.33 1011.57 1982.97 1011.69L1985.26 1012.15C1989.32 1012.96 1992.46 1016.2 1993.15 1020.28Z" fill="#157A00" stroke="#184E06" stroke-width="4"/>
<path d="M2031.92 1041H2025.1C2021.96 1041 2019.08 1042.73 2017.61 1045.51C2016.29 1048 2016.3 1050.99 2017.64 1053.48L2027.17 1071.23C2028.91 1074.48 2032.3 1076.5 2035.98 1076.5H2044.91C2046.92 1076.5 2048.89 1077.11 2050.55 1078.25L2062.97 1086.74C2065.51 1088.48 2068.72 1088.95 2071.65 1088.02L2078 1086L2084.17 1084.46C2087.76 1083.56 2091.55 1084.72 2094.02 1087.47L2098.42 1092.35C2098.8 1092.78 2099.23 1093.18 2099.69 1093.54L2107.78 1099.88C2109.54 1101.25 2111.71 1102 2113.95 1102H2127.99C2128.66 1102 2129.33 1101.93 2129.99 1101.8L2153.5 1097L2180.12 1093.39C2181.99 1093.14 2183.72 1092.28 2185.05 1090.95C2187.93 1088.07 2188.4 1083.56 2186.17 1080.15L2181.23 1072.61C2180.74 1071.87 2180.17 1071.2 2179.51 1070.62L2176.32 1067.78C2173.38 1065.17 2169.2 1064.52 2165.61 1066.12L2153.5 1071.5L2141.37 1076.35C2138.05 1077.68 2134.27 1077.13 2131.46 1074.92L2119.72 1065.65C2117.96 1064.26 2115.78 1063.5 2113.53 1063.5H2104H2088.77C2086.65 1063.5 2084.58 1062.82 2082.86 1061.56L2080.64 1059.94C2078.92 1058.68 2076.85 1058 2074.73 1058H2067.91C2065.7 1058 2063.55 1057.27 2061.8 1055.91L2054.48 1050.26C2053.83 1049.75 2053.12 1049.33 2052.36 1049L2035.91 1041.83C2034.65 1041.28 2033.29 1041 2031.92 1041Z" fill="#157A00" stroke="#184E06" stroke-width="4"/>
<path d="M2199.29 1045H2196.03C2193.44 1045 2190.96 1044 2189.1 1042.21L2181.9 1035.29C2180.04 1033.5 2177.56 1032.5 2174.97 1032.5H2170.64C2167.99 1032.5 2165.45 1033.55 2163.57 1035.43L2160.59 1038.41C2156.88 1042.12 2150.93 1042.33 2146.96 1038.88L2145.94 1037.99C2143.75 1036.09 2142.5 1033.34 2142.5 1030.44V1025.19C2142.5 1023.43 2142.96 1021.7 2143.85 1020.18L2145.11 1017.99C2146.9 1014.9 2150.2 1013 2153.77 1013H2163.5H2168.19C2171.23 1013 2174.1 1014.38 2176 1016.75L2178.35 1019.68C2178.78 1020.22 2179.29 1020.7 2179.86 1021.1C2182.35 1022.84 2185.66 1022.86 2188.17 1021.14L2191.47 1018.86C2191.82 1018.62 2192.15 1018.35 2192.45 1018.05C2193.76 1016.74 2195.54 1016 2197.39 1016H2201.15C2204.76 1016 2208.1 1017.95 2209.87 1021.1L2210.22 1021.72C2211.06 1023.21 2211.5 1024.9 2211.5 1026.62V1031.85C2211.5 1033.9 2210.87 1035.9 2209.69 1037.58L2207.49 1040.73C2205.61 1043.41 2202.56 1045 2199.29 1045Z" fill="#157A00" stroke="#184E06" stroke-width="4"/>
<path d="M2351.43 1075H2357.31C2359.38 1075 2361.41 1075.65 2363.1 1076.85L2378.74 1087.96C2379.24 1088.32 2379.79 1088.63 2380.35 1088.89L2395.02 1095.63C2396.96 1096.52 2399.13 1096.77 2401.21 1096.34L2407.02 1095.14C2411.66 1094.19 2415 1090.09 2415 1085.35V1082.48C2415 1079.03 2417.5 1076.08 2420.9 1075.52C2422.87 1075.19 2424.89 1075.71 2426.46 1076.95L2436.48 1084.91C2439.28 1087.13 2443.05 1087.69 2446.37 1086.39L2456.18 1082.52C2457.06 1082.17 2457.97 1081.96 2458.91 1081.87L2493.5 1078.59C2494.16 1078.53 2494.82 1078.4 2495.46 1078.21L2518.98 1071.07C2521.05 1070.44 2523.27 1071.31 2524.36 1073.17C2525.94 1075.84 2524.51 1079.27 2521.51 1080.05L2518.98 1080.71C2516.05 1081.47 2514 1084.11 2514 1087.14V1088.5V1098.2C2514 1100.03 2514.5 1101.83 2515.45 1103.39L2521.32 1113.06C2522.1 1114.34 2523.15 1115.42 2524.4 1116.24L2530.35 1120.12C2532.68 1121.64 2535.53 1122.12 2538.23 1121.44L2547.99 1119C2549.32 1118.67 2550.56 1118.07 2551.64 1117.24L2564.64 1107.31C2566.18 1106.13 2567.34 1104.52 2567.99 1102.69L2569.34 1098.87C2571.13 1093.81 2567.37 1088.5 2562 1088.5H2548.94C2547.34 1088.5 2545.76 1088.11 2544.33 1087.37L2539.39 1084.8C2536.08 1083.08 2534 1079.66 2534 1075.93V1075.47C2534 1072.06 2535.74 1068.89 2538.61 1067.05L2545.49 1062.65C2546.16 1062.22 2546.78 1061.71 2547.33 1061.13L2548.68 1059.72C2552.96 1055.25 2551.47 1047.89 2545.8 1045.43C2543.68 1044.51 2541.29 1044.45 2539.14 1045.27L2512.01 1055.49C2509.45 1056.45 2506.61 1056.33 2504.14 1055.14L2497.56 1051.97C2495.58 1051.02 2493.33 1050.75 2491.17 1051.2L2464.52 1056.79C2463.84 1056.93 2463.15 1057 2462.46 1057H2451.96C2450.99 1057 2450.03 1057.14 2449.1 1057.42L2424.22 1064.84C2422.76 1065.27 2421.22 1065.37 2419.72 1065.12L2404.05 1062.51C2402.06 1062.18 2400.22 1061.26 2398.77 1059.86L2391.9 1053.28C2390.04 1051.5 2387.56 1050.5 2384.98 1050.5H2370H2348.53C2346.87 1050.5 2345.23 1050.91 2343.77 1051.71L2340.69 1053.37C2336.74 1055.52 2334.7 1060.03 2335.71 1064.42L2335.82 1064.91C2336.56 1068.1 2338.81 1070.73 2341.85 1071.94L2347.71 1074.28C2348.89 1074.76 2350.15 1075 2351.43 1075Z" fill="#157A00" stroke="#184E06" stroke-width="4"/>
<path d="M2643.41 1062.98L2641.07 1063.54C2636.42 1064.67 2631.64 1062.26 2629.78 1057.85C2629.26 1056.63 2628.51 1055.53 2627.55 1054.61L2618.4 1045.8C2616.54 1044 2614.05 1043 2611.47 1043H2599.85C2597.37 1043 2594.98 1042.08 2593.15 1040.42L2576.31 1025.24C2575.77 1024.75 2575.18 1024.32 2574.55 1023.96L2563.55 1017.73C2561.58 1016.61 2559.28 1016.2 2557.04 1016.55L2538.89 1019.46C2536.69 1019.81 2534.44 1019.42 2532.49 1018.35L2525.5 1014.5L2506 1006.14C2505.01 1005.72 2503.95 1005.46 2502.88 1005.37L2476.23 1003.18C2474.76 1003.06 2473.28 1003.27 2471.9 1003.79L2455.12 1010.08C2454.37 1010.36 2453.6 1010.55 2452.82 1010.64L2434.7 1012.85C2433.9 1012.95 2433.12 1013.14 2432.37 1013.43L2417.54 1019.04C2415.88 1019.67 2414.08 1019.84 2412.32 1019.54L2401.63 1017.72C2396.2 1016.8 2392.74 1011.4 2394.17 1006.08C2394.71 1004.08 2395.89 1002.32 2397.54 1001.07L2404.82 995.538C2406.56 994.216 2408.68 993.5 2410.87 993.5H2422.73C2424.54 993.5 2426.32 993.007 2427.88 992.075L2435.5 987.5L2465.11 974.809C2466.36 974.275 2467.7 974 2469.05 974H2497.72C2499.54 974 2501.32 974.498 2502.88 975.439L2524.62 988.561C2526.18 989.502 2527.96 990 2529.78 990H2568.95C2570.62 990 2572.27 990.42 2573.74 991.221L2625.78 1019.6C2626.26 1019.87 2626.72 1020.17 2627.15 1020.51L2648.58 1037.28C2649.19 1037.76 2649.74 1038.31 2650.23 1038.91L2650.53 1039.29C2652.41 1041.64 2653.13 1044.71 2652.5 1047.65L2650.82 1055.37C2650.01 1059.12 2647.13 1062.07 2643.41 1062.98Z" fill="#157A00" stroke="#184E06" stroke-width="4"/>
<path d="M1932.45 872.306L1946.25 897.24C1947.07 898.722 1947.5 900.389 1947.5 902.083V910.394C1947.5 912.093 1947 913.754 1946.05 915.168C1944.46 917.562 1941.77 919 1938.89 919H1937.71C1934.17 919 1930.9 917.129 1929.1 914.08L1920.5 899.5L1902.59 874.992C1901.87 874.006 1900.97 873.16 1899.95 872.496L1893 868L1871 852.5L1855.5 841.081C1853.27 839.435 1851.82 836.934 1851.5 834.177L1851.07 830.461C1850.71 827.338 1848.9 824.566 1846.19 822.977L1830 813.5L1804.38 799.116C1802.51 798.067 1801.03 796.444 1800.15 794.487L1789.58 770.899C1788.87 769.326 1788.58 767.598 1788.74 765.882L1790.32 748.891C1790.44 747.641 1790.32 746.381 1789.97 745.176L1786.64 733.715C1786.22 732.257 1786.13 730.723 1786.39 729.227L1787.42 723.289C1788.08 719.453 1786.45 715.583 1783.25 713.368L1781.76 712.331C1778.06 709.772 1776.53 705.061 1778.01 700.816L1780.66 693.206C1782.06 689.19 1785.85 686.5 1790.1 686.5H1794.12C1796.62 686.5 1799.02 687.433 1800.86 689.115L1804.93 692.824C1807.73 695.382 1808.84 699.307 1807.8 702.956L1805.94 709.45C1805.04 712.612 1805.75 716.016 1807.84 718.554L1814.63 726.8C1817.01 729.687 1817.57 733.659 1816.1 737.096L1814.81 740.113C1814.28 741.358 1814 742.698 1814 744.053V750.861C1814 751.618 1814.09 752.372 1814.26 753.11L1816.46 762.657C1816.81 764.197 1817.53 765.631 1818.55 766.841L1825.07 774.61C1826.64 776.473 1828.83 777.701 1831.23 778.065L1841.2 779.576C1843.03 779.853 1844.75 780.633 1846.16 781.829L1857 791L1867.12 799.281C1867.71 799.759 1868.23 800.301 1868.7 800.898L1878.51 813.569C1879.49 814.838 1880.15 816.324 1880.44 817.902L1882.51 829.289C1883.37 834.044 1887.51 837.5 1892.35 837.5H1906.11C1908.31 837.5 1910.45 838.225 1912.19 839.564L1922.07 847.135C1923.65 848.35 1924.84 850.013 1925.47 851.908L1931.71 870.626C1931.9 871.207 1932.15 871.77 1932.45 872.306Z" fill="#157A00" stroke="#184E06" stroke-width="4"/>
<path d="M1431.81 696.806L1457.5 706.487C1461.8 708.107 1463.79 713.062 1461.8 717.203C1460.41 720.099 1457.4 721.852 1454.19 721.626L1424 719.5L1372.5 709.5L1314.39 704.698C1312.82 704.568 1311.3 704.067 1309.96 703.238L1257 670.5L1237.28 660.642C1236.43 660.216 1235.65 659.671 1234.95 659.023L1195.44 622.308C1194.17 621.123 1193.23 619.626 1192.71 617.966L1184.35 591.213C1183.79 589.439 1182.76 587.855 1181.35 586.639L1172.94 579.347C1170.2 576.972 1168.96 573.3 1169.7 569.75L1170.64 565.212C1170.88 564.079 1171.31 562.996 1171.92 562.011L1176.74 554.177C1178.18 551.83 1180.53 550.184 1183.23 549.625L1190.26 548.17C1192.36 547.735 1194.55 547.988 1196.5 548.892L1205.69 553.159C1206.88 553.714 1207.96 554.5 1208.85 555.472L1213 560L1219.41 568.299C1220.77 570.05 1221.5 572.201 1221.5 574.413V588.388C1221.5 591.022 1222.54 593.55 1224.39 595.423L1269.08 640.569C1270.02 641.513 1271.13 642.262 1272.36 642.771L1291 650.5L1324.5 660L1352 670.5L1382.14 686.764C1383.04 687.252 1384.01 687.597 1385.02 687.789L1430.15 696.338C1430.71 696.446 1431.27 696.602 1431.81 696.806Z" fill="#157A00" stroke="#184E06" stroke-width="4"/>
<path d="M1441 691.5L1460.88 697.502C1464.86 698.704 1469.18 697.315 1471.71 694.013L1476.94 687.192C1478.27 685.446 1479 683.308 1479 681.108V672.57C1479 670.261 1478.2 668.024 1476.74 666.237L1468.5 656.168C1466.6 653.846 1463.76 652.5 1460.76 652.5H1454.53C1453.52 652.5 1452.51 652.345 1451.54 652.041L1427.5 644.5L1398 633L1356.84 621.73C1356.28 621.577 1355.74 621.375 1355.21 621.128L1339.47 613.696C1338.5 613.235 1337.6 612.619 1336.82 611.873L1315.02 590.979C1314.34 590.329 1313.58 589.779 1312.75 589.343L1289.71 577.26C1285.98 575.303 1281.43 575.893 1278.32 578.735L1270.53 585.858C1267.75 588.399 1266.64 592.286 1267.64 595.915L1267.95 597.028C1268.31 598.329 1268.93 599.544 1269.78 600.598L1274.7 606.749C1275.88 608.22 1277.44 609.328 1279.22 609.947L1288 613L1299.07 617.258C1300.34 617.747 1301.5 618.492 1302.48 619.446L1323.45 639.986C1324.47 640.984 1325.69 641.752 1327.03 642.239L1339.17 646.653C1340.57 647.161 1341.5 648.491 1341.5 649.979C1341.5 651.488 1342.46 652.831 1343.88 653.325L1367.5 661.5L1395 673.5L1424.5 684.5L1441 691.5Z" fill="#157A00" stroke="#184E06" stroke-width="4"/>
<path d="M1177.78 505.47L1170.87 511.848C1169.03 513.553 1166.6 514.5 1164.09 514.5H1163.5H1152.16C1148.92 514.5 1145.89 512.932 1144.01 510.292L1135.64 498.507C1134.26 496.566 1133.62 494.197 1133.83 491.826L1135.74 470.422C1135.91 468.514 1135.53 466.598 1134.64 464.9L1125.64 447.677C1124.89 446.247 1124.5 444.657 1124.5 443.044V434.304C1124.5 433.438 1124.39 432.576 1124.17 431.74L1118.19 409.205C1118.06 408.736 1117.9 408.276 1117.71 407.83L1109.81 389.387C1109.28 388.142 1109 386.802 1109 385.447V371.328C1109 370.777 1109.05 370.227 1109.14 369.684L1113.36 344.316C1113.45 343.773 1113.5 343.223 1113.5 342.672V329.288C1113.5 328.112 1113.77 326.952 1114.3 325.9L1115.71 323.087C1116.94 320.621 1120.02 319.743 1122.37 321.188C1123.7 322.008 1124.54 323.438 1124.6 325.002L1126.31 368.626C1126.43 371.702 1127.96 374.551 1130.46 376.35L1134.84 379.507C1137.45 381.386 1139 384.406 1139 387.622V391.811C1139 393.253 1139.31 394.678 1139.91 395.989L1159 437.5L1166.65 450.671C1167.53 452.197 1168 453.929 1168 455.693V459.972C1168 461.946 1168.58 463.877 1169.68 465.519L1179.32 479.981C1180.42 481.623 1181 483.554 1181 485.528V498.122C1181 500.913 1179.83 503.577 1177.78 505.47Z" fill="#157A00" stroke="#184E06" stroke-width="4"/>
<path d="M1117.5 470L1123.81 491.852C1123.94 492.282 1124 492.727 1124 493.175C1124 497.065 1119.59 499.318 1116.44 497.04L1115.5 496.36C1115.17 496.121 1114.81 495.92 1114.43 495.762L1105.45 491.995C1101.85 490.484 1099.5 486.956 1099.5 483.048C1099.5 481.064 1098.89 479.127 1097.76 477.5L1089.8 466.077C1088.63 464.399 1088 462.404 1088 460.359V455.5V449.453C1088 447.53 1088.59 445.653 1089.68 444.072C1091.45 441.522 1094.35 440 1097.45 440H1097.62C1098.86 440 1100.09 440.237 1101.25 440.699L1102.83 441.331C1105.48 442.392 1107.55 444.539 1108.52 447.228L1111.5 455.5L1117.5 470Z" fill="#157A00" stroke="#184E06" stroke-width="4"/>
<path d="M1097.82 367.923L1093.81 389.098C1093.05 393.102 1089.55 396 1085.48 396C1083.55 396 1081.68 395.344 1080.18 394.141L1071.03 386.824C1070.35 386.277 1069.74 385.642 1069.22 384.936L1053.94 364.142C1052.68 362.426 1052 360.351 1052 358.221V343.07C1052 340.761 1052.8 338.524 1054.26 336.737L1054.87 335.995C1055.94 334.686 1057.32 333.671 1058.89 333.043L1064.96 330.615C1065.98 330.208 1066.92 329.636 1067.76 328.923L1068.47 328.314C1069.48 327.447 1070.31 326.386 1070.9 325.194L1072.78 321.436C1073.26 320.485 1073.58 319.464 1073.73 318.412L1075.25 308.052C1075.97 303.141 1080.18 299.5 1085.14 299.5H1092.5H1096.23C1099.53 299.5 1102.61 301.129 1104.48 303.853L1106.25 306.447C1107.39 308.11 1108 310.078 1108 312.094V317.036C1108 318.97 1107.44 320.863 1106.38 322.485L1102.43 328.563C1101.82 329.514 1101.36 330.563 1101.1 331.666L1098.28 343.343C1098.09 344.112 1098 344.899 1098 345.69V366.06C1098 366.685 1097.94 367.309 1097.82 367.923Z" fill="#157A00" stroke="#184E06" stroke-width="4"/>
<path d="M785.179 343.605L748.644 345.704C745.416 345.89 742.477 347.624 740.755 350.36L738.126 354.535C736.196 357.6 736.075 361.471 737.81 364.651L739.698 368.113C740.55 369.676 741.805 370.983 743.332 371.899L749.19 375.414C750.383 376.13 751.713 376.589 753.095 376.762L773.218 379.277C774.396 379.425 775.592 379.361 776.748 379.089L798.725 373.918C799.899 373.642 801.113 373.58 802.308 373.736L823.5 376.5H853.541C854.508 376.5 855.471 376.359 856.399 376.083L910.601 359.917C911.529 359.641 912.492 359.5 913.459 359.5H925.357C927.71 359.5 929.988 358.67 931.789 357.157L937.949 351.983C940.201 350.091 943.172 349.287 946.071 349.784L956.528 351.576C958.151 351.854 959.817 351.728 961.38 351.207L965.608 349.797C967.178 349.274 968.594 348.369 969.728 347.164L981.039 335.146C982.928 333.138 985.563 332 988.321 332H1003.19C1004.39 332 1005.58 331.784 1006.7 331.363L1024.02 324.868C1027.01 323.745 1029 320.879 1029 317.679C1029 313.438 1025.56 310 1021.32 310H1009.23C1008.09 310 1006.95 310.197 1005.87 310.583L988.076 316.937C987.033 317.31 986.058 317.853 985.193 318.546L964.239 335.309C962.466 336.727 960.263 337.5 957.992 337.5H936.394C935.142 337.5 933.902 337.265 932.737 336.808L923.58 333.21C921.58 332.424 919.38 332.304 917.306 332.866L892.285 339.651C891.432 339.883 890.552 340 889.668 340H869.161C868.389 340 867.621 340.089 866.87 340.266L845.789 345.226C843.656 345.728 841.416 345.515 839.415 344.62L825.449 338.372C824.164 337.797 822.773 337.5 821.365 337.5H802.622C801.223 337.5 799.839 337.794 798.561 338.362L788.667 342.759C787.565 343.249 786.383 343.535 785.179 343.605Z" fill="#157A00" stroke="#184E06" stroke-width="4"/>
<path d="M747 319L748.622 313.324C749.489 310.288 751.739 307.84 754.691 306.721L792.515 292.374C793.17 292.125 793.849 291.946 794.541 291.84L824.84 287.178C825.611 287.06 826.365 286.852 827.087 286.558L853.688 275.737C854.885 275.25 856.164 275 857.456 275H884.886C887.814 275 890.594 273.717 892.494 271.489L901.006 261.511C902.906 259.283 905.686 258 908.614 258H945.706C946.565 258 947.421 258.111 948.251 258.329L974.249 265.171C975.079 265.389 975.935 265.5 976.794 265.5H986.744C991.991 265.5 995.874 260.619 994.694 255.507V255.507C994.247 253.569 994.523 251.535 995.47 249.787L998.748 243.735C999.879 241.647 1001.72 240.029 1003.93 239.172L1009.46 237.031C1013.39 235.512 1017.84 236.612 1020.61 239.783L1036.5 258L1037.09 258.691C1038.65 260.504 1039.5 262.812 1039.5 265.199V269.469C1039.5 270.155 1039.57 270.838 1039.71 271.509L1041.59 280.548C1041.86 281.807 1041.66 283.119 1041.03 284.243V284.243C1040.09 285.945 1038.29 287 1036.35 287H1028.57C1026.57 287 1024.62 287.599 1022.96 288.721L1011.36 296.579C1010.46 297.189 1009.47 297.648 1008.42 297.938L989.989 303.035C987.735 303.659 985.333 303.472 983.202 302.508L968.671 295.934C966.617 295.005 964.31 294.797 962.124 295.344L941.808 300.423C940.29 300.802 938.705 300.821 937.18 300.476L924 297.5L889.5 294.5H877.357C875.179 294.5 873.06 295.211 871.323 296.526L858.177 306.474C856.44 307.789 854.321 308.5 852.143 308.5H835.53C834.516 308.5 833.508 308.654 832.54 308.958L801.96 318.542C800.992 318.846 799.984 319 798.97 319H780.978C779.672 319 778.379 319.256 777.171 319.753L765.495 324.561C763.243 325.488 760.73 325.562 758.427 324.768L747.5 321" stroke="#184E06" stroke-width="4"/>
<path d="M1642.68 657H1621C1616.94 657 1613.46 659.894 1612.73 663.883L1611.84 668.656C1611.62 669.867 1611.69 671.114 1612.06 672.29C1613.18 675.861 1616.73 678.08 1620.43 677.511L1626.24 676.616C1626.75 676.539 1627.26 676.5 1627.76 676.5H1644.5L1669.69 673.648C1670.56 673.55 1671.44 673.566 1672.3 673.695L1690.26 676.389C1690.75 676.463 1691.25 676.5 1691.75 676.5H1700.38C1701.45 676.5 1702.52 676.327 1703.54 675.987L1717.64 671.285C1719.19 670.77 1720.84 670.64 1722.45 670.908L1734.43 672.904C1736.73 673.289 1739.11 672.851 1741.13 671.667L1750.67 666.074C1751.8 665.409 1752.5 664.191 1752.5 662.875C1752.5 662.3 1752.63 661.732 1752.89 661.217L1757.24 652.528C1758.93 649.14 1762.39 647 1766.18 647H1768H1785.5C1787.51 647 1789.21 645.521 1789.48 643.533L1790.58 635.637C1791.14 631.621 1789.21 627.666 1785.71 625.624L1781.84 623.362C1780.31 622.47 1778.57 622 1776.8 622H1764.49C1761.63 622 1758.91 623.221 1757.02 625.356L1746.98 636.644C1745.09 638.779 1742.37 640 1739.51 640H1735.83C1735.28 640 1734.73 640.046 1734.18 640.136L1723.68 641.887C1721.31 642.282 1719.16 643.521 1717.62 645.375L1712.1 652.043C1709.6 655.062 1705.57 656.344 1701.79 655.321L1674.12 647.843C1672.09 647.295 1669.94 647.399 1667.98 648.14L1646.21 656.356C1645.08 656.782 1643.88 657 1642.68 657Z" fill="#157A00" stroke="#184E06" stroke-width="4"/>
<path d="M2365.32 1041.32L2384.27 1048.03C2386.05 1048.67 2387.62 1049.79 2388.79 1051.27L2397 1061.69C2398.89 1064.1 2401.79 1065.5 2404.85 1065.5H2418.29C2419.09 1065.5 2419.89 1065.4 2420.68 1065.21L2450 1058L2484.51 1051.94C2486.14 1051.65 2487.82 1051.77 2489.4 1052.3L2503.25 1056.92C2505.36 1057.62 2507.64 1057.6 2509.73 1056.87L2540.97 1045.89C2542.62 1045.31 2544.4 1045.26 2546.08 1045.74C2551.66 1047.33 2553.99 1053.96 2550.63 1058.7L2549.97 1059.64C2549.33 1060.54 2548.53 1061.32 2547.62 1061.94L2538.9 1067.85C2536.46 1069.51 2535 1072.27 2535 1075.22C2535 1078.73 2537.07 1081.92 2540.29 1083.35L2554.31 1089.58C2556.38 1090.5 2558.69 1090.69 2560.88 1090.12L2584.5 1084L2611.4 1078.36C2614.02 1077.81 2616.32 1076.23 2617.76 1073.97L2624.11 1064.07C2626.43 1060.44 2626.18 1055.74 2623.48 1052.39L2619.04 1046.89C2616.84 1044.16 2613.38 1042.79 2609.91 1043.25L2601.07 1044.45C2598.46 1044.8 2595.82 1044.11 2593.72 1042.53L2563.61 1019.85C2561.61 1018.34 2559.12 1017.64 2556.62 1017.88L2537.58 1019.75C2535.89 1019.91 2534.18 1019.64 2532.62 1018.97L2498.91 1004.33C2497.65 1003.78 2496.29 1003.5 2494.92 1003.5H2474.28C2473.43 1003.5 2472.58 1003.61 2471.76 1003.82L2426.23 1015.68C2425.41 1015.89 2424.63 1016.21 2423.89 1016.62L2413.77 1022.24C2412.28 1023.07 2410.61 1023.5 2408.91 1023.5H2395.11C2394.37 1023.5 2393.64 1023.58 2392.92 1023.74L2369.5 1029L2365.67 1030.1C2362.17 1031.09 2360.4 1034.99 2361.95 1038.27C2362.62 1039.7 2363.83 1040.8 2365.32 1041.32Z" fill="#317377" stroke="#2B5B5F" stroke-width="4"/>
<path d="M2694.08 1073.5H2659.12C2657.08 1073.5 2655.64 1071.52 2656.26 1069.58L2662.75 1049.4C2663.37 1047.47 2665.68 1046.69 2667.34 1047.87L2695.82 1068.05C2698.2 1069.74 2697 1073.5 2694.08 1073.5Z" fill="#317377" stroke="#2B5B5F" stroke-width="4"/>
<path d="M1783.5 727.5V739V743.5L1769 739L1761.5 718.5V704H1769L1783.5 718.5V727.5Z" fill="#317377" stroke="#2B5B5E" stroke-width="4"/>
<path d="M1265.9 577.285L1259.28 585.978C1258.79 586.622 1258.02 587 1257.22 587C1256.45 587 1255.72 586.658 1255.22 586.067L1243.14 571.566C1241.78 569.94 1239.78 569 1237.66 569C1234.34 569 1231.47 566.716 1230.71 563.489L1228.76 555.121C1228.59 554.376 1228.5 553.614 1228.5 552.849V546.289C1228.5 543.717 1230.12 541.423 1232.54 540.558C1234.4 539.894 1236.46 540.172 1238.08 541.303L1243.8 545.312C1244.92 546.096 1245.87 547.1 1246.59 548.264L1251.78 556.701C1252.9 558.519 1254.57 559.932 1256.55 560.732L1265.95 564.534C1270.74 566.469 1271.5 572.925 1267.3 575.926C1266.77 576.307 1266.3 576.765 1265.9 577.285Z" fill="#157A00" stroke="#184E06" stroke-width="4"/>
<path d="M1048.49 331.021L1034.67 324.803C1034.23 324.603 1033.75 324.5 1033.26 324.5C1031.07 324.5 1029.43 322.478 1029.89 320.334L1030.5 317.5C1031.27 313.897 1028.53 310.5 1024.84 310.5H1016.01C1015.34 310.5 1014.67 310.568 1014.01 310.702L992.221 315.149C991.083 315.381 989.993 315.81 989.001 316.417L958.889 334.844C957.645 335.605 956.249 336.085 954.799 336.25L937.721 338.191C935.94 338.393 934.137 338.113 932.501 337.38L923.534 333.36C921.564 332.477 919.362 332.255 917.256 332.727L891.5 338.5L866 342.5L847.203 346.259C844.817 346.737 842.338 346.327 840.232 345.108L827.303 337.623C825.481 336.568 823.372 336.115 821.278 336.329L802.277 338.268C800.778 338.421 799.334 338.91 798.051 339.699L795.726 341.13C794.266 342.028 792.601 342.536 790.889 342.606L749.026 344.297C745.967 344.421 743.12 342.739 741.751 340.001C741.256 339.012 740.556 338.139 739.697 337.442L735.726 334.215C733.963 332.782 731.76 332 729.487 332C725.806 332 722.43 334.043 720.722 337.303L718.998 340.596C718.34 341.851 717.423 342.952 716.308 343.826L701.265 355.616C700.103 356.527 698.753 357.17 697.313 357.497L669.187 363.889C667.538 364.264 665.819 363.682 664.736 362.383C664.253 361.804 663.632 361.355 662.93 361.079L652.987 357.162C649.602 355.828 645.759 356.439 642.953 358.756L636.574 364.026C636.194 364.34 635.867 364.713 635.606 365.131L634.817 366.392C633.198 368.983 629.338 368.701 628.113 365.901C627.72 365.002 627.69 363.986 628.029 363.065L630.186 357.21C630.721 355.757 631.587 354.447 632.715 353.385L636.612 349.718C638.467 347.972 640.918 347 643.466 347H656.268C657.414 347 658.552 347.197 659.631 347.583L669.178 350.992C671.019 351.65 673.012 351.753 674.911 351.29L690.742 347.429C691.905 347.145 693.007 346.655 693.996 345.983L703.662 339.41C704.548 338.807 705.332 338.066 705.983 337.215L715.624 324.607C717.152 322.609 719.376 321.261 721.854 320.83L726.643 319.997C728.509 319.672 730.429 319.885 732.18 320.609L742.297 324.795C743.423 325.261 744.454 325.929 745.34 326.765L750.11 331.27C751.966 333.023 754.422 334 756.976 334H766.029C767.652 334 769.25 333.605 770.687 332.849L775.813 330.151C777.25 329.395 778.848 329 780.471 329H789.648C792.127 329 794.518 328.079 796.357 326.415L802.309 321.03C803.422 320.023 804.748 319.279 806.188 318.854L833.537 310.784C834.177 310.595 834.835 310.471 835.501 310.413L854.524 308.759C856.466 308.59 858.316 307.857 859.846 306.651L870.986 297.875C872.926 296.346 875.364 295.589 877.829 295.751L934.02 299.436C934.672 299.478 935.326 299.457 935.974 299.372L962.465 295.898C964.443 295.639 966.453 295.977 968.238 296.869L982.63 304.065C985.1 305.3 987.969 305.459 990.56 304.504L1015 295.5L1031.02 288.903C1031.67 288.635 1032.35 288.437 1033.04 288.311L1034.79 287.993C1039.54 287.128 1043 282.987 1043 278.154V273.516C1043 271.416 1044.34 269.552 1046.34 268.888C1047.98 268.338 1049.8 268.708 1051.11 269.858L1056.67 274.769C1057.22 275.255 1057.82 275.679 1058.47 276.033L1076.32 285.852C1077.1 286.28 1077.79 286.848 1078.37 287.527L1083.65 293.763C1085.56 296.029 1083.95 299.5 1080.99 299.5C1079.06 299.5 1077.5 301.06 1077.5 302.985V304.516C1077.5 305.484 1077.22 306.432 1076.69 307.245L1066.41 323.097C1065.81 324.026 1065.06 324.848 1064.18 325.53L1058.76 329.777C1055.83 332.066 1051.88 332.545 1048.49 331.021Z" fill="#317377" stroke="#2B5B5F" stroke-width="4"/>
<path d="M1875.5 161.5L1787.5 184H1781L1769.5 173L1746.5 156.5L1691.5 139.5H1622H1537L1456 94.5L1444 75.5L1432.5 66L1528 61L1554 66L1596.5 75.5L1622 83L1673.5 88L1834.5 75.5L1922 161.5H1875.5Z" fill="url(#paint3_linear_21_1471)" stroke="#456643" stroke-width="4"/>
<path d="M1332.31 669.612C1328.97 669.612 1326.65 665.371 1325.07 670.094" stroke="#2B5B5E" stroke-width="10" stroke-linecap="round"/>
<path d="M1328.93 668.646C1330.26 668.646 1331.16 668.725 1332.31 669.236C1332.86 669.48 1335.78 670.979 1333.66 671.06C1330.79 671.17 1328.48 669.612 1325.55 669.612" stroke="#FCCE64" stroke-width="10" stroke-linecap="round"/>
<path d="M1351.15 681.684H1353.56" stroke="#FCCE64" stroke-width="10" stroke-linecap="round"/>
<path d="M1371.91 687.479C1372.8 687.479 1373.13 687.967 1373.84 688.445" stroke="#FCCE64" stroke-width="10" stroke-linecap="round"/>
<path d="M1386.4 694.722C1388.8 694.722 1390.16 695.637 1392.19 696.654" stroke="#FCCE64" stroke-width="10" stroke-linecap="round"/>
<path d="M1443.86 666.231C1442.01 666.231 1440.13 666.148 1438.55 667.197" stroke="#FCCE64" stroke-width="10" stroke-linecap="round"/>
<path d="M1456.9 666.714H1456.42" stroke="#FCCE64" stroke-width="10" stroke-linecap="round"/>
<path d="M1359.84 650.778H1361.29" stroke="#FCCE64" stroke-width="10" stroke-linecap="round"/>
<path d="M1189.86 589.45C1189.74 588.332 1188.94 587.372 1187.93 587.035" stroke="#FCCE64" stroke-width="10" stroke-linecap="round"/>
<path d="M1146.88 498.665C1147.74 498.665 1148.11 498.799 1148.81 499.148" stroke="#FCCE64" stroke-width="10" stroke-linecap="round"/>
<path d="M1146.88 474.52C1147.6 474.52 1148.01 474.369 1148.33 475.003" stroke="#FCCE64" stroke-width="10" stroke-linecap="round"/>
<path d="M1126.12 415.606H1126.6" stroke="#FCCE64" stroke-width="10" stroke-linecap="round"/>
<path d="M1186 561.442C1185.39 561.442 1188.72 559.013 1189.05 558.759C1189.78 558.2 1190.88 557.579 1191.79 557.579" stroke="#FCCE64" stroke-width="6" stroke-linecap="round"/>
<path d="M1338.59 619.873C1339.5 619.974 1341.12 621.545 1341.49 622.287" stroke="#FCCE64" stroke-width="6" stroke-linecap="round"/>
<path d="M1313 694.722C1315.04 694.722 1316.41 695.536 1318.31 696.171" stroke="#FCCE64" stroke-width="6" stroke-linecap="round"/>
<path d="M1352.6 630.014C1352.6 628.661 1350.05 626.914 1349.22 625.667" stroke="#FCCE64" stroke-width="6" stroke-linecap="round"/>
<path d="M1144.47 485.626C1143.61 485.626 1140.92 485.963 1140.6 486.592" stroke="#FCCE64" stroke-width="6" stroke-linecap="round"/>
<path d="M1166.2 473.554H1168.61" stroke="#FCCE64" stroke-width="6" stroke-linecap="round"/>
<path d="M1168.61 491.904C1166 491.904 1163.39 491.904 1160.78 491.904C1159.53 491.904 1158.27 491.904 1157.02 491.904C1155.15 491.904 1155.09 491.806 1155.09 489.865C1155.09 487.041 1155.57 484.527 1155.57 481.763C1155.57 479.887 1154.73 475.002 1157.26 475.002C1158.61 475.002 1159.58 477.327 1160.16 478.356C1161.22 480.249 1162.87 481.168 1164.48 482.487C1166.79 484.376 1168.9 482.3 1171.24 482.3C1171.78 482.3 1171.51 487.898 1171.51 488.685C1171.51 489.781 1171.86 486.311 1172.72 485.626C1174.33 484.338 1171.48 484.298 1170.54 484.902C1169.24 485.736 1168.24 486.592 1166.68 486.592C1163.51 486.592 1163.83 482.845 1160.51 485.143C1159.4 485.909 1158.94 486.722 1158.09 487.665C1156.77 489.139 1157.02 488.734 1157.02 486.592C1157.02 486.062 1157.77 483.722 1157.29 484.178C1156.19 485.216 1153.74 485.785 1153.64 487.558C1153.58 488.66 1153.58 489.837 1153.64 490.938C1153.71 492.162 1156.05 491.801 1156.81 492.145C1159.74 493.48 1163.07 491.421 1165.95 491.421C1167.77 491.421 1169.5 490.938 1171.24 490.938C1172.03 490.938 1173.86 489.299 1172.66 489.033C1168.69 488.151 1163.83 490.764 1161.15 487.316C1159.74 485.495 1159.43 483.195 1158.47 481.28" stroke="#E4AB29" stroke-width="6" stroke-linecap="round"/>
<path d="M1085.07 353.312C1082.07 353.312 1078.77 352.89 1075.89 353.795C1073.96 354.404 1071.77 355.651 1069.72 355.726C1068.69 355.765 1067.83 355.803 1066.96 356.477C1062.83 359.689 1062.86 349.44 1062.86 347.517C1062.86 344.996 1066.65 343.431 1068.06 341.722C1068.93 340.668 1070.76 338.221 1072.27 337.886C1072.94 337.737 1075.93 343.995 1076.86 344.861C1079.11 346.945 1080.55 348 1083.62 348C1085.61 348 1085.89 351.46 1085.45 349.717C1084.72 346.878 1082.75 342.31 1080.03 340.756C1079.62 340.527 1076.84 338.335 1076.62 338.422C1076.12 338.624 1075.5 346.987 1075.04 348.375C1074.57 349.777 1073.55 353.976 1072.41 350.307C1071.83 348.438 1072.14 346.54 1072.03 344.619C1071.99 343.874 1070.95 347 1070.8 347.275C1070.04 348.68 1068.65 350.487 1068.65 352.051C1068.65 354.045 1068.65 348.062 1068.65 346.068" stroke="#75932B" stroke-width="6" stroke-linecap="round"/>
<path d="M1173.92 489.007C1170.57 489.007 1166.5 489.849 1163.57 491.314C1160.4 492.897 1157.16 493.733 1156.57 488.98C1155.88 483.485 1156.54 478.243 1156.54 472.83C1156.54 469.977 1158.41 470.475 1159.44 472.588C1160.6 474.989 1161.71 478.247 1164.27 479.724C1167.2 481.421 1169.62 481.28 1172.96 481.28C1175.31 481.28 1173.2 485.156 1172.23 485.787C1168.54 488.196 1167.44 485.702 1166.41 482.756C1166.05 481.732 1163.92 478.64 1162.92 481.012C1162.64 481.698 1162.82 486.764 1162.82 485.036C1162.82 483.019 1162.89 480.989 1162.82 478.973C1162.75 477.113 1161.92 479.67 1161.58 480.073C1160.43 481.431 1158.47 482.935 1158.47 484.929C1158.47 486.761 1158.58 488.627 1158.47 490.455C1158.42 491.326 1155.55 490.938 1154.85 490.938C1153.25 490.938 1153.64 488.172 1153.64 487.075C1153.64 487.034 1151.8 491.299 1152.78 492.28C1153.58 493.076 1157.57 491.964 1158.52 491.877C1161.08 491.645 1164.13 491.798 1166.57 491.046C1167.82 490.663 1169.49 490.938 1170.78 490.938C1171.88 490.938 1174.12 490.117 1172.72 491.207C1170.44 492.975 1165.55 493.296 1164.51 489.946C1164.27 489.198 1163.6 481.151 1162.71 482.139C1161.09 483.941 1161.69 487.136 1159.92 489.007C1156.91 492.193 1153.16 493.354 1153.16 487.826C1153.16 485.49 1152.08 479.707 1154.61 478.866" stroke="#75932B" stroke-width="6" stroke-linecap="round"/>
<path d="M1003.94 294.881C996.684 294.881 989.346 294.398 982.211 294.398C978.885 294.398 977.865 293.352 977.865 290.052C977.865 288.527 977.405 286.16 978.348 284.981C979.361 283.715 979.29 286.36 979.421 286.671C979.966 287.965 980.192 288.998 981.246 290.052C983.031 291.837 984.855 293.786 987.523 293.405C992.326 292.719 996.331 290.535 1001.29 290.535C1001.79 290.535 1004.36 290.964 1002.87 291.018C999.991 291.12 996.939 290.51 994.311 289.327C991.963 288.271 989.172 286.342 986.557 286.188C985.259 286.112 983.948 285.067 982.936 284.257C981.219 282.884 979.313 283.345 982.211 284.632C984.262 285.544 986.643 285.977 988.704 287.154C990.795 288.35 990.195 290.052 988.006 290.052C985.934 290.052 978.168 280.753 976.899 283.291" stroke="#75932B" stroke-width="6" stroke-linecap="round"/>
<path d="M1003.46 283.291C1001.04 283.291 997.482 283.936 995.143 283.184C992.766 282.42 991.065 280.957 988.973 279.911" stroke="#FCCE64" stroke-width="6" stroke-linecap="round"/>
<path d="M772.633 350.414C772.633 354.128 767.871 360.312 764.316 361.628C760.774 362.94 758.415 363.935 754.551 363.935C752.058 363.935 751.975 363.41 751.278 361.145C750.806 359.611 749.981 356.659 750.446 355.029C751.043 352.939 753.186 353.812 754.39 352.936C754.975 352.511 756.454 352.869 757.18 352.829C758.185 352.773 759.914 352.073 760.802 351.595C762.445 350.71 764.386 349.908 766.087 349.422C768.723 348.668 768.798 350.277 766.838 352.346C765.422 353.841 763.565 354.695 761.741 355.216C759.919 355.737 758.868 356.558 757.18 357.55C754.756 358.977 757.375 358.624 758.87 358.624C761.326 358.624 762.447 358.624 759.219 358.624C757.35 358.624 755.481 358.624 753.612 358.624C750.076 358.624 763.941 359.745 763.941 356.209" stroke="#FCCE64" stroke-width="6" stroke-linecap="round"/>
<path d="M1529.82 804.824C1529.55 807.299 1525.51 811.058 1523.17 811.96C1522.08 812.377 1517.49 813.418 1516.41 812.443C1514.62 810.837 1515.33 807.487 1515.33 805.307C1515.33 802.798 1517.18 802.409 1519.2 802.409C1521.65 802.409 1525.48 803.77 1525.48 806.755C1525.48 808.337 1526.44 807.325 1526.44 806.272C1526.44 805.152 1526.51 804.011 1526.44 802.892C1526.35 801.279 1524.04 805.96 1523.92 806.165C1523.21 807.346 1522.26 808.215 1522.09 809.653C1521.92 811.14 1520.61 810.382 1520.06 809.653C1519.41 808.807 1518.71 805.691 1518.71 806.755" stroke="#FCCE64" stroke-width="6" stroke-linecap="round"/>
<path d="M1504.71 774.884C1504.71 778.86 1500.76 782.961 1498.7 786.205C1497.56 787.992 1492.54 789.211 1490.97 787.198C1489.44 785.23 1490.22 781.412 1490.22 778.988C1490.22 776.273 1493.16 771.411 1494.78 769.33C1496.64 766.937 1498.91 768.269 1498.91 771.02C1498.91 774.197 1498.59 777.117 1498.43 780.196C1498.35 781.806 1497.79 783.624 1497.49 785.239C1496.99 788.012 1495.55 780.629 1495.53 779.82C1495.48 776.375 1494.43 773.435 1498.43 773.435" stroke="#FCCE64" stroke-width="6" stroke-linecap="round"/>
<path d="M1555.9 719.833C1554.48 721.409 1552.27 724.29 1550.34 725.145C1547.55 726.387 1546.49 726.209 1544.55 723.401C1542.67 720.692 1542.86 716.037 1542.86 712.831C1542.86 709.615 1542.62 709.209 1546 709.209C1548.65 709.209 1549.44 709.52 1551.55 710.765C1553.93 712.166 1553 716.608 1553 718.867C1553 720.605 1551.02 725.128 1549.14 722.14C1547.74 719.929 1548.17 716.136 1548.17 713.555C1548.17 712.117 1547.42 714.31 1546.62 715.111C1545.1 716.631 1544.78 717.735 1544.07 719.592C1543.33 721.507 1542.28 724.681 1542.89 726.808C1543.58 729.239 1547.18 726.623 1547.93 725.869C1550.11 723.686 1551.51 720.783 1553 718.17C1553.88 716.631 1553.59 713.977 1553.48 712.107C1553.42 711.023 1547.89 710.439 1546.83 710.765C1544.07 711.615 1543.45 713.545 1543.34 716.56C1543.21 720.113 1542.05 724.181 1540.93 727.559" stroke="#FCCE64" stroke-width="6" stroke-linecap="round"/>
<path d="M1566.97 872.933C1566.97 870.892 1567.07 868.963 1565.87 867.251C1565.33 866.495 1564.02 866.136 1563.66 867.202" stroke="#FCCE64" stroke-width="6" stroke-linecap="round"/>
<path d="M1559.25 860.148V862.794" stroke="#FCCE64" stroke-width="6" stroke-linecap="round"/>
<path d="M1621.19 854.417C1620.58 854.341 1619.82 853.237 1619.32 852.887C1618.73 852.473 1617.68 852.039 1617.45 851.331" stroke="#FCCE64" stroke-width="6" stroke-linecap="round"/>
<path d="M1618.99 868.525C1617.74 868.525 1616.49 868.525 1615.24 868.525C1613.8 868.525 1613.41 867.963 1612.33 867.202C1611.46 866.593 1610.83 865.731 1609.9 865.169C1608.6 864.379 1607.1 864.092 1605.78 863.345C1603.98 862.337 1603.56 861.077 1603.56 858.948C1603.56 857.747 1602.34 853.828 1604.27 853.756C1605.66 853.705 1606.61 854.458 1607.8 855.128C1610.34 856.559 1612.49 858.469 1614.53 860.54C1615.46 861.488 1616.13 862.517 1617.27 863.235C1618.29 863.874 1619.73 864.005 1620.62 864.888C1621.13 865.398 1619.52 865.602 1619.36 865.61C1617.58 865.694 1615.9 864.973 1614.81 863.565C1613.79 862.249 1612.77 860.441 1611.26 859.61C1610.29 859.074 1609.4 858.752 1608.52 858.067C1608.16 857.788 1607.64 857.231 1607.31 857.063" stroke="#FCCE64" stroke-width="6" stroke-linecap="round"/>
<path d="M1663.96 823.998C1663.17 823.998 1658.89 824.423 1658.89 823.558" stroke="#FCCE64" stroke-width="6" stroke-linecap="round"/>
<path d="M1671.23 819.81C1672.47 819.81 1673.01 820.77 1674.1 821.133" stroke="#FCCE64" stroke-width="6" stroke-linecap="round"/>
<path d="M1701.65 855.52C1701.65 857.127 1701.24 858.367 1699.89 859.267" stroke="#FCCE64" stroke-width="6" stroke-linecap="round"/>
<path d="M1708.7 848.245C1709.18 848.364 1708.9 850.23 1708.92 850.67C1708.96 851.274 1710.13 850.761 1710.3 850.45C1710.65 849.781 1711.13 849.023 1711.13 848.245C1711.13 847.696 1711.04 846.523 1711.57 846.261" stroke="#FCCE64" stroke-width="6" stroke-linecap="round"/>
<path d="M1734.71 849.568C1734.65 849.066 1732.3 849.38 1731.86 849.335C1731.71 849.32 1729.63 848.646 1730.43 849.445C1730.9 849.918 1731.83 850.083 1732.39 850.499C1733.09 851.024 1733.78 851.517 1734.49 851.993" stroke="#FCCE64" stroke-width="6" stroke-linecap="round"/>
<path d="M1757.2 790.053C1758.03 790.053 1758.77 790.204 1759.57 790.444C1760.52 790.728 1761.26 791.321 1762.16 791.596C1763.34 791.96 1765.29 793.676 1766.12 792.012C1767.01 790.231 1767.31 788.551 1767.78 786.648C1768.36 784.298 1769.12 782.007 1769.33 779.582C1769.4 778.805 1769.85 777.797 1769.76 777.047C1769.65 776.062 1766.52 778.27 1766.23 778.615C1765.02 780.102 1764.03 781.971 1763.14 783.672C1761.98 785.861 1760.91 788.051 1760.45 790.493C1760.32 791.245 1759.87 792.918 1758.85 792.918C1757.07 792.918 1757.64 790.213 1757.64 788.999C1757.64 788.403 1757.58 787.768 1757.65 787.175C1757.74 786.461 1758.45 785.814 1758.75 785.166C1760.02 782.476 1761.42 780.028 1763.37 777.758C1764.96 775.901 1766.31 775.817 1768.44 775.284" stroke="#FCCE64" stroke-width="6" stroke-linecap="round"/>
<path d="M1842.5 789.612C1842.94 789.612 1844.27 789.85 1844.27 789.281C1844.27 788.599 1843.58 787.874 1843.16 787.407C1842.63 786.808 1841.69 786.737 1841.07 787.407C1840.11 788.444 1839.86 789.954 1839.86 791.375" stroke="#FCCE64" stroke-width="6" stroke-linecap="round"/>
<path d="M1844.05 804.16C1844.05 804.981 1844.03 805.308 1844.49 805.972C1844.78 806.399 1845.71 808.077 1846.35 807.895C1847.17 807.659 1846.47 806.436 1846.13 806.144C1845.36 805.487 1844.4 805.042 1843.38 805.042" stroke="#FCCE64" stroke-width="6" stroke-linecap="round"/>
<path d="M1899.59 843.616C1899.67 843.616 1898.36 843.601 1898 843.616C1896.98 843.661 1895.75 844.329 1894.85 844.829C1893.11 845.796 1893.89 843.301 1893.2 842.955" stroke="#FCCE64" stroke-width="6" stroke-linecap="round"/>
<path d="M2146.86 1093.02C2146.11 1092.19 2144.35 1090.14 2144.35 1089.04C2144.35 1088 2146.08 1088.42 2146.86 1088.42C2148.97 1088.42 2148.11 1092.14 2148.11 1093.86" stroke="#FCCE64" stroke-width="6" stroke-linecap="round"/>
<path d="M2128.87 1094.27C2127.45 1093.64 2128.03 1089.45 2128.03 1088C2128.03 1087.04 2128.67 1084.63 2130.12 1086.09C2130.96 1086.93 2132.57 1094.94 2131.38 1095.53" stroke="#FCCE64" stroke-width="6" stroke-linecap="round"/>
<path d="M2128.03 1082.14C2128.03 1081.29 2128.41 1079.36 2127.19 1079.21C2126.06 1079.07 2125.52 1077.21 2125.52 1076.28" stroke="#FCCE64" stroke-width="6" stroke-linecap="round"/>
<path d="M2115.06 1069.17C2113.57 1069.17 2111.7 1069.47 2110.25 1069.15C2109.83 1069.05 2110.19 1067.78 2109.79 1067.94C2108.83 1068.32 2108.19 1068.75 2107.11 1068.75" stroke="#FCCE64" stroke-width="6" stroke-linecap="round"/>
<path d="M2046.87 1051.18C2045.82 1051.18 2043.16 1051.68 2042.59 1050.76C2041.83 1049.54 2040.63 1049.51 2039.34 1049.51C2036.16 1049.51 2032.61 1048 2029.5 1048.69C2028.81 1048.85 2027.33 1051.53 2027.18 1052.23C2026.87 1053.64 2026.4 1055.2 2027.11 1056.62C2028.07 1058.55 2029.38 1059.35 2030.88 1060.9C2032.45 1062.53 2033.59 1065.73 2034.32 1067.89C2035.33 1070.94 2041.74 1070.11 2043.43 1068.24C2044.34 1067.22 2044.01 1065.02 2043.94 1063.73C2043.89 1062.87 2042.92 1062.33 2042.26 1061.97C2041.24 1061.4 2041.04 1060.75 2040.36 1059.97C2039.37 1058.83 2039.27 1056.92 2038.89 1055.6C2038.45 1054.03 2037.34 1057.84 2037.99 1059.13C2038.63 1060.42 2039.48 1061.55 2040.08 1062.9C2040.58 1064.02 2039.36 1064.15 2038.59 1064.15C2037.13 1064.15 2037.05 1063.9 2036.62 1062.5C2035.62 1059.3 2034.88 1055.12 2033.27 1052.23C2032.66 1051.13 2034.73 1050.53 2034.73 1052.85C2034.73 1054.58 2033.1 1056.3 2031.39 1056.2C2030.59 1056.16 2030.61 1055.06 2030.46 1055.36C2030.14 1056 2030.11 1056.82 2029.62 1057.36C2028.84 1058.23 2028.04 1059.44 2028.04 1060.59C2028.04 1062.02 2028.47 1063.28 2029.11 1064.57C2030.05 1066.45 2030.43 1066.45 2032.22 1067.4C2034.87 1068.8 2038.71 1068.17 2040.36 1065.59C2042.51 1062.22 2039.69 1056.86 2042.68 1053.69C2043.15 1053.19 2047.19 1051.51 2046.36 1053.27C2045.3 1055.5 2042.6 1055.78 2040.38 1055.78C2038.33 1055.78 2037.31 1054.79 2036.22 1053.09C2035.58 1052.08 2039.05 1052.44 2039.75 1052.44" stroke="#FCCE64" stroke-width="6" stroke-linecap="round"/>
<path d="M2176.98 1038.63C2175.13 1038.63 2173.86 1037.28 2172.38 1036.54" stroke="#FCCE64" stroke-width="6" stroke-linecap="round"/>
<path d="M2187.86 1021.48C2186.71 1021.35 2185.45 1019.42 2184.09 1018.97" stroke="#FCCE64" stroke-width="6" stroke-linecap="round"/>
<path d="M2187.86 1029.84C2187.86 1032.45 2187.38 1035.5 2188.28 1037.98C2188.81 1039.44 2190.81 1039.05 2192.02 1039.05C2193.83 1039.05 2196.18 1039.45 2197.9 1038.84C2199.64 1038.22 2200.32 1035.97 2201.43 1034.66C2203.24 1032.52 2203.05 1029.05 2204.8 1026.94C2205.47 1026.14 2205.1 1024.33 2205.64 1023.36C2206.8 1021.26 2202.5 1023.09 2201.9 1023.36C2200.21 1024.13 2200.26 1022.31 2198.95 1022.31C2195.21 1022.31 2194.14 1027.82 2194.14 1030.68C2194.14 1032.52 2194 1034.89 2192.37 1036.03C2191.11 1036.9 2190.75 1031.69 2190.79 1031.1C2190.84 1030.17 2192.45 1030.04 2192.97 1029.52C2194.23 1028.26 2193.77 1027.48 2195.9 1026.82C2200.76 1025.32 2197.06 1031.8 2197.06 1033.61" stroke="#FCCE64" stroke-width="6" stroke-linecap="round"/>
<path d="M2359.39 1070.43C2359.65 1069.01 2361.88 1066.79 2363.16 1066.15C2364.08 1065.69 2365.07 1065.82 2366.09 1065.82" stroke="#FCCE64" stroke-width="6" stroke-linecap="round"/>
<path d="M2369.85 1073.77C2371.51 1073.77 2373.3 1075.23 2374.04 1076.7" stroke="#FCCE64" stroke-width="6" stroke-linecap="round"/>
<path d="M2388.68 1070.43C2388.55 1069.24 2387.66 1070 2387.1 1069.5C2386.54 1069 2386.8 1068.23 2386.17 1067.92" stroke="#FCCE64" stroke-width="6" stroke-linecap="round"/>
<path d="M2392.03 1067.08C2392.03 1068.56 2392.45 1069.84 2392.45 1071.26" stroke="#FCCE64" stroke-width="6" stroke-linecap="round"/>
<path d="M2427.17 1071.26C2430.83 1071.26 2434.76 1075.51 2437.21 1077.96" stroke="#FCCE64" stroke-width="6" stroke-linecap="round"/>
<path d="M2443.91 1068.75H2447.25" stroke="#FCCE64" stroke-width="6" stroke-linecap="round"/>
<path d="M2531.76 1107.24C2531.76 1105.28 2526.84 1106.03 2525.49 1105.66C2523.33 1105.07 2522.98 1102.5 2522.98 1100.55C2522.98 1098.35 2521.6 1094.59 2522.65 1092.6C2523.35 1091.29 2524.75 1093.88 2525.09 1094.27C2527.25 1096.7 2530.32 1097.99 2532.93 1099.81C2534.09 1100.62 2538.61 1103.97 2535.02 1104.64C2530.78 1105.43 2531.16 1102.67 2529.16 1100.22C2528.18 1099.02 2527.58 1098.04 2527.58 1100.04C2527.58 1101.59 2525.72 1103.48 2528 1103.48" stroke="#FCCE64" stroke-width="6" stroke-linecap="round"/>
<path d="M2623.81 1042.81C2624.82 1041.68 2624.4 1040.3 2622.97 1040.3" stroke="#FCCE64" stroke-width="6" stroke-linecap="round"/>
<path d="M2635.1 1034.86C2636.5 1034.86 2638.03 1034.46 2637.2 1036.12" stroke="#FCCE64" stroke-width="6" stroke-linecap="round"/>
<path d="M2644.73 1042.81C2644.73 1046.08 2644.99 1048.71 2643.38 1051.6C2642.44 1053.3 2639.04 1054.33 2637.29 1054.85C2631.78 1056.49 2632.65 1047.3 2632.59 1044.07C2632.57 1043.02 2632.01 1040.72 2633.43 1040.72C2635.04 1040.72 2636.65 1040.72 2638.27 1040.72C2640.48 1040.72 2642 1040.63 2643.24 1042.58C2643.87 1043.57 2643.51 1045.9 2642.82 1046.79C2641.79 1048.11 2640.87 1048.25 2639.29 1048.25C2637.41 1048.25 2638.03 1046.69 2638.03 1045.11C2638.03 1044.52 2638.3 1042.38 2639.45 1042.84C2639.64 1042.91 2638.55 1044.01 2638.45 1044.16C2637.92 1044.95 2637.52 1045.87 2637.2 1046.76C2636.51 1048.66 2636.78 1050.82 2636.78 1052.85" stroke="#FCCE64" stroke-width="6" stroke-linecap="round"/>
<path d="M1502.72 860.052C1502.72 857.64 1503.2 854.71 1502.63 852.372C1502.26 850.865 1499.97 850.522 1498.81 850.016C1497.17 849.299 1495.9 847.8 1494.23 847.092C1492.61 846.404 1491 845.695 1489.36 845.041C1487.59 844.332 1486.04 842.913 1484.17 842.467C1480.65 841.626 1476.63 840.631 1473.44 838.845C1471.05 837.509 1468.45 836.134 1465.8 835.398C1464.47 835.03 1463.34 834.045 1462.07 833.761C1460.85 833.49 1460.69 840.677 1460.69 841.899C1460.69 844.891 1459.3 847.665 1461.68 850.037C1465.75 854.111 1469.8 856.069 1475.31 857.696C1480.35 859.181 1484.85 860.694 1490.15 860.837C1492.5 860.901 1496.49 863.114 1497.81 860.226C1498.44 858.841 1499.08 850.292 1495.65 852.11C1494.17 852.893 1494.14 855.525 1493.68 856.91C1493.39 857.802 1493.08 858.838 1492.31 859.441C1491.39 860.158 1491.72 856.846 1491.7 856.474C1491.66 855.776 1491.44 847.814 1489.76 848.75C1488.57 849.407 1487.79 852.614 1487.79 853.921C1487.79 855.605 1488.39 850.094 1487.2 848.903C1487.14 848.838 1486.74 851.541 1486.7 851.892C1486.54 853.443 1486.39 854.982 1486.22 856.517C1486.16 857.073 1485.07 851.883 1485.02 850.845C1484.93 849.073 1484.21 845.136 1483.08 848.663C1482.97 849.015 1481.96 853.788 1481.6 852.721C1481.31 851.898 1479.86 842.635 1479.35 842.838C1478.78 843.064 1478.74 851.041 1478.45 852.197C1478.28 852.901 1477.28 855.512 1476.21 855.274C1474.51 854.897 1474.44 845.917 1474.44 844.234C1474.44 842.33 1473.67 847.964 1473.35 849.841C1473.27 850.301 1471.65 854.769 1470.99 852.416C1469.98 848.768 1470.51 844.619 1469.14 841.049C1468.48 839.327 1468.55 845.095 1468.55 845.696C1468.55 846.5 1468.77 850.704 1467.37 850.627C1465.83 850.541 1464.77 844.855 1464.62 843.776C1464.53 843.102 1464.35 841.499 1463.84 840.983C1463.25 840.397 1463.84 842.641 1463.84 843.47C1463.84 844.196 1463.59 848.512 1464.14 845.827C1464.45 844.317 1464.04 839.63 1466 839.63C1469.82 839.63 1472.76 842.94 1476.01 844.648C1478.56 845.993 1480.72 843.754 1480.72 847.659C1480.72 848.592 1480.99 856.453 1480.66 856.496C1478.89 856.716 1477.31 855.35 1475.92 854.467C1473.47 852.897 1470.99 851.329 1468.59 849.667C1466.9 848.494 1466.22 847.231 1465.1 845.827C1463.85 844.262 1461.73 844.072 1460.11 842.772C1459.52 842.301 1460.13 841.201 1458.93 841.201C1457.11 841.201 1460.41 840.683 1461.48 841.201C1463.11 841.994 1464.49 843.218 1466.04 844.147C1469.68 846.333 1473.42 848.263 1476.97 850.627C1482.44 854.27 1487.85 857.963 1493.29 861.623C1495.82 863.326 1498.24 865.943 1501.34 865.943C1504.05 865.943 1504.68 864.539 1504.68 862.212C1504.68 858.958 1505.72 853.372 1503.89 850.627" stroke="#FCCE64" stroke-width="6" stroke-linecap="round"/>
<path d="M1452.53 714.107H1455.15" stroke="#2D5724" stroke-width="6" stroke-linecap="round"/>
<path d="M1440.74 711.486H1447.29" stroke="#2D5724" stroke-width="6" stroke-linecap="round"/>
<path d="M1431.56 706.243C1429.84 706.243 1428.58 706.362 1426.97 706.898" stroke="#2D5724" stroke-width="6" stroke-linecap="round"/>
<path d="M1457.12 712.141C1453.85 712.141 1450.01 712.948 1447.29 714.762" stroke="#31542A" stroke-width="6" stroke-linecap="round"/>
<path d="M1103.89 478.837H1110.44" stroke="#31542A" stroke-width="6" stroke-linecap="round"/>
<path d="M1100.61 465.075H1106.51" stroke="#31542A" stroke-width="6" stroke-linecap="round"/>
<path d="M1095.37 452.623C1096.02 452.542 1096.34 451.828 1096.68 451.312" stroke="#31542A" stroke-width="6" stroke-linecap="round"/>
<path d="M1118.31 491.944C1115.97 491.944 1115.14 491.326 1113.06 490.633" stroke="#31542A" stroke-width="6" stroke-linecap="round"/>
<path d="M1132.07 389.054C1131.88 390.536 1126.86 392.315 1125.51 392.986" stroke="#31542A" stroke-width="6" stroke-linecap="round"/>
<path d="M1119.62 375.947C1119.5 376.9 1116.45 378.459 1115.68 379.224" stroke="#31542A" stroke-width="6" stroke-linecap="round"/>
<path d="M1116.99 354.321C1118.65 354.321 1120.01 353.665 1121.58 353.665" stroke="#31542A" stroke-width="6" stroke-linecap="round"/>
<path d="M1120.27 326.796C1120.27 327.961 1120.09 328.471 1119.62 329.418" stroke="#31542A" stroke-width="6" stroke-linecap="round"/>
<path d="M1012.79 315.655C1011.91 315.655 1011.54 315.954 1010.83 316.31" stroke="#31542A" stroke-width="6" stroke-linecap="round"/>
<path d="M1006.24 316.966C1002.74 316.966 999.674 318.277 996.41 318.277" stroke="#31542A" stroke-width="6" stroke-linecap="round"/>
<path d="M987.891 323.519C987.01 323.519 986.638 323.818 985.925 324.175" stroke="#31542A" stroke-width="6" stroke-linecap="round"/>
<path d="M1027.59 274.81C1026.56 274.758 1025.69 274.235 1024.7 274.037" stroke="#31542A" stroke-width="6" stroke-linecap="round"/>
<path d="M1014.66 264.193C1013.61 264.143 1012.85 263.676 1011.96 263.228" stroke="#31542A" stroke-width="6" stroke-linecap="round"/>
<path d="M1011.38 251.454C1010.39 251.364 1009.5 250.598 1008.68 250.103" stroke="#31542A" stroke-width="6" stroke-linecap="round"/>
<path d="M978.566 329.628C977.456 329.628 977.291 330.889 976.442 331.172" stroke="#31542A" stroke-width="6" stroke-linecap="round"/>
<path d="M803.688 312.449C804.068 312.111 805.254 312.056 805.812 311.87" stroke="#31542A" stroke-width="6" stroke-linecap="round"/>
<path d="M781.491 312.835H787.668" stroke="#31542A" stroke-width="6" stroke-linecap="round"/>
<path d="M766.628 311.677H773.963" stroke="#31542A" stroke-width="6" stroke-linecap="round"/>
<path d="M754.854 315.73H758.136" stroke="#31542A" stroke-width="6" stroke-linecap="round"/>
<path d="M2209.09 1083.31H2215.84" stroke="#75932B" stroke-width="6" stroke-linecap="round"/>
<path d="M2225.85 1081.69H2230.74" stroke="#75932B" stroke-width="6" stroke-linecap="round"/>
<path d="M2245.39 1078.43C2243.93 1078.43 2243.71 1078.11 2244.01 1076.46C2244.17 1075.59 2245.45 1075.64 2246.09 1075.64" stroke="#75932B" stroke-width="6" stroke-linecap="round"/>
<path d="M2253.07 1074.71C2253.07 1074.36 2253.07 1074.01 2253.07 1073.66C2253.07 1073.43 2252.25 1073.31 2252.48 1073.31C2253.71 1073.31 2254.79 1073.88 2255.87 1073.08" stroke="#75932B" stroke-width="6" stroke-linecap="round"/>
<path d="M2327.54 1025.84C2328.55 1025.97 2330.16 1026.8 2331.26 1026.25C2332.62 1025.57 2329.91 1024.77 2329.63 1024.68" stroke="#75932B" stroke-width="6" stroke-linecap="round"/>
<path d="M2344.52 1021.19C2344.52 1022.05 2344.96 1020.85 2345.1 1020.6C2345.65 1019.61 2344.4 1019.79 2343.77 1019.79C2342.63 1019.79 2339.8 1019.71 2339.2 1021.07C2338.94 1021.66 2340.01 1021.8 2340.33 1021.88" stroke="#75932B" stroke-width="6" stroke-linecap="round"/>
<path d="M2353.6 1019.79C2354.51 1019.79 2356.32 1020 2356.39 1018.63C2356.43 1017.75 2356.4 1016.99 2355.46 1017.46" stroke="#75932B" stroke-width="6" stroke-linecap="round"/>
<path d="M2365 1015.14C2366.36 1015.14 2366.86 1014.76 2366.86 1013.27" stroke="#75932B" stroke-width="6" stroke-linecap="round"/>
<path d="M2585.36 1092.16C2586.13 1092.16 2587.91 1090.53 2586.42 1090.53C2585.75 1090.53 2583.96 1090.31 2583.96 1091.34C2583.96 1091.88 2584.44 1092.24 2584.89 1092.39" stroke="#75932B" stroke-width="6" stroke-linecap="round"/>
<path d="M2596.76 1090.99C2596.71 1090.61 2595.6 1090.25 2595.6 1090.76C2595.6 1091.22 2596.63 1091.02 2596.76 1090.76" stroke="#75932B" stroke-width="6" stroke-linecap="round"/>
<path d="M2612.58 1090.53C2613.06 1090.59 2612.85 1094.34 2610.77 1091.46C2609.09 1089.13 2611.47 1087.88 2613.18 1086.79C2615.89 1085.06 2618.57 1083 2621.43 1081.57C2623.49 1080.54 2624.52 1077.82 2626.73 1077.08C2628.9 1076.36 2628.19 1079.67 2627.76 1080.7C2626.49 1083.75 2623.22 1086.33 2620.86 1088.52C2618.98 1090.27 2617.17 1091.99 2615.38 1093.79C2615.05 1094.11 2614.4 1095.16 2613.88 1095.16C2613.34 1095.16 2613.51 1093.39 2613.51 1093.09" stroke="#75932B" stroke-width="6" stroke-linecap="round"/>
<path d="M1596 913.118C1601.41 913.118 1594.84 906.542 1594.84 911.959" stroke="#75932B" stroke-width="6" stroke-linecap="round"/>
<path d="M1607.59 905.584C1607.47 906.625 1607.01 909.723 1607.01 908.675C1607.01 906.572 1608.17 904.791 1608.17 902.686" stroke="#75932B" stroke-width="6" stroke-linecap="round"/>
<path d="M1618.02 898.629C1616.95 899.83 1617.17 901.714 1615.44 899.498C1613.94 897.568 1615.72 896.311 1617.44 896.311" stroke="#75932B" stroke-width="6" stroke-linecap="round"/>
<path d="M1627.29 892.833C1626.98 890.308 1623.23 895.158 1626.71 892.833" stroke="#75932B" stroke-width="6" stroke-linecap="round"/>
<path d="M1834.06 859.982C1833.32 859.982 1832.85 859.924 1832.48 859.174C1832.12 858.459 1832.34 857.564 1832.01 856.914" stroke="#75932B" stroke-width="6" stroke-linecap="round"/>
<path d="M1826.79 850.095C1826.22 850.033 1826.02 848.707 1825.76 848.302C1825.6 848.049 1825.29 848.209 1825.08 847.936" stroke="#75932B" stroke-width="6" stroke-linecap="round"/>
<path d="M1819.28 839.527C1818.96 839.527 1817.69 839.326 1817.69 839.754C1817.69 840.045 1817.67 840.688 1817.3 840.771C1817.11 840.812 1816.99 840.732 1816.89 840.575C1816.47 839.917 1816.17 839.244 1815.65 838.643C1815.29 838.229 1814.51 837.6 1814.51 837.027" stroke="#75932B" stroke-width="6" stroke-linecap="round"/>
<path d="M1807.35 830.89C1807.27 828.872 1806.45 826.763 1805.56 824.968C1805.17 824.181 1805.21 824.499 1804.97 824.981" stroke="#75932B" stroke-width="6" stroke-linecap="round"/>
<path d="M1802.13 819.185C1801.65 818.523 1801.03 817.895 1800.32 817.493C1800.04 817.336 1799.58 817.262 1799.34 817.077C1798.52 816.437 1798.6 814.9 1798.6 813.958" stroke="#75932B" stroke-width="6" stroke-linecap="round"/>
<path d="M1590.39 661.902C1589.47 661.902 1587.76 662.252 1586.97 661.731" stroke="#75932B" stroke-width="6" stroke-linecap="round"/>
<path d="M1572.12 661.731H1575.02" stroke="#75932B" stroke-width="6" stroke-linecap="round"/>
<path d="M1558.46 663.609C1557.64 663.609 1557.02 663.66 1556.24 663.951" stroke="#75932B" stroke-width="6" stroke-linecap="round"/>
<path d="M1548.39 668.39H1548.22" stroke="#75932B" stroke-width="6" stroke-linecap="round"/>
<path d="M1720.49 698.61H1721.17" stroke="#75932B" stroke-width="6" stroke-linecap="round"/>
<path d="M1695.22 706.805L1695.05 706.976" stroke="#75932B" stroke-width="6" stroke-linecap="round"/>
<path d="M1714.51 747.611C1714.47 747.253 1714.34 746.975 1714.34 746.586" stroke="#75932B" stroke-width="6" stroke-linecap="round"/>
<path d="M1734.83 736.513C1734.88 736.081 1735.71 735.631 1736.03 735.318" stroke="#75932B" stroke-width="6" stroke-linecap="round"/>
<path d="M1743.54 724.732C1743.88 724.69 1743.71 723.615 1743.71 723.366" stroke="#75932B" stroke-width="6" stroke-linecap="round"/>
<path d="M1754.98 685.292C1754.47 685.32 1754.06 685.582 1753.61 685.804" stroke="#75932B" stroke-width="6" stroke-linecap="round"/>
<path d="M1742.86 689.39C1740.39 689.39 1737.99 690.073 1735.51 690.073" stroke="#75932B" stroke-width="6" stroke-linecap="round"/>
<path d="M1250.75 570.039H1256.59" stroke="#2D5724" stroke-width="6" stroke-linecap="round"/>
<path d="M1242.28 560.257C1242.19 560.358 1244.26 560.403 1244.76 560.403" stroke="#2D5724" stroke-width="6" stroke-linecap="round"/>
<path d="M1235.57 547.555C1235.87 548.169 1238.91 547.552 1239.8 547.847" stroke="#2D5724" stroke-width="6" stroke-linecap="round"/>
<path d="M1428 993L1442.5 1033V1041L1462.5 1028.5L1484 1013L1523.5 997L1565.5 970.5L1594.5 951H1609L1623 943H1590L1556.5 930.5L1527.5 913L1502.5 887.5H1489.5L1473 881.5L1434 860L1428 865.5L1424 890.5V913.5V948L1428 993Z" fill="#444444"/>
<path d="M1465.5 735.5L1430 816L1351 798L1265.5 765L1143.5 684.5L1186.5 635.5L1206.5 662.5L1277.5 701L1289 712L1465.5 735.5Z" fill="#7D7D7D"/>
<path d="M2416.5 1526.5L2410.67 1527.93L2410.7 1528.06L2410.74 1528.19L2416.5 1526.5ZM2480.74 1745.74L2504.24 1702.76L2461.26 1679.26L2437.76 1722.24L2480.74 1745.74ZM2388.17 1435.93L2410.67 1527.93L2422.33 1525.07L2399.83 1433.07L2388.17 1435.93ZM2410.74 1528.19L2465.24 1714.19L2476.76 1710.81L2422.26 1524.81L2410.74 1528.19Z" fill="#9A9A9A"/>
<path d="M178.5 738L177.092 743.832L177.107 743.836L177.122 743.84L178.5 738ZM101.326 719.372L126.872 761.174L168.674 735.628L143.128 693.826L101.326 719.372ZM224.378 742.66L179.878 732.16L177.122 743.84L221.622 754.34L224.378 742.66ZM179.908 732.168L136.408 721.668L133.592 733.332L177.092 743.832L179.908 732.168Z" fill="#9A9A9A"/>
<ellipse cx="2389.5" cy="1412" rx="32.5" ry="36" fill="#9A9A9A"/>
<ellipse cx="2602.5" cy="1294.5" rx="32.5" ry="16.5" fill="#9A9A9A"/>
<defs>
<filter id="filter0_d_21_1471" x="62.5" y="36" width="3145.5" height="2048.5" filterUnits="userSpaceOnUse" color-interpolation-filters="sRGB">
<feFlood flood-opacity="0" result="BackgroundImageFix"/>
<feColorMatrix in="SourceAlpha" type="matrix" values="0 0 0 0 0 0 0 0 0 0 0 0 0 0 0 0 0 0 127 0" result="hardAlpha"/>
<feOffset dy="10"/>
<feGaussianBlur stdDeviation="15"/>
<feComposite in2="hardAlpha" operator="out"/>
<feColorMatrix type="matrix" values="0 0 0 0 0 0 0 0 0 0 0 0 0 0 0 0 0 0 0.25 0"/>
<feBlend mode="normal" in2="BackgroundImageFix" result="effect1_dropShadow_21_1471"/>
<feBlend mode="normal" in="SourceGraphic" in2="effect1_dropShadow_21_1471" result="shape"/>
</filter>
<linearGradient id="paint0_linear_21_1471" x1="2242.5" y1="1140" x2="2242.5" y2="1995.5" gradientUnits="userSpaceOnUse">
<stop stop-color="#62BD4F"/>
<stop offset="1" stop-color="#31542A"/>
</linearGradient>
<linearGradient id="paint1_linear_21_1471" x1="1937.5" y1="1027.5" x2="1405.5" y2="418" gradientUnits="userSpaceOnUse">
<stop stop-color="#609156"/>
<stop offset="1" stop-color="#B9CA74"/>
</linearGradient>
<linearGradient id="paint2_linear_21_1471" x1="1029.5" y1="151.5" x2="1029.5" y2="538.5" gradientUnits="userSpaceOnUse">
<stop stop-color="#609156"/>
<stop offset="1" stop-color="#8FB188"/>
</linearGradient>
<linearGradient id="paint3_linear_21_1471" x1="1424" y1="122.5" x2="1922" y2="122.5" gradientUnits="userSpaceOnUse">
<stop stop-color="#38622F"/>
<stop offset="1" stop-color="#72C860"/>
</linearGradient>
</defs>
</svg>
