<svg width="106" height="86" viewBox="0 0 106 86" fill="none" xmlns="http://www.w3.org/2000/svg">
<path d="M7.5 28L11 26L51.0677 3.85029C52.2704 3.1867 53.7296 3.1867 54.9323 3.85029L100.798 29.1557C103.514 30.6543 103.565 34.5401 100.889 36.1088L55.0229 62.9959C53.7737 63.7281 52.2263 63.7281 50.9771 62.9959L15.5 42.5" stroke="#6981D3" stroke-width="6"/>
<path d="M5.20162 48.6557L51.0677 23.3503C52.2704 22.6867 53.7296 22.6867 54.9323 23.3503L100.798 48.6557C103.514 50.1543 103.565 54.0401 100.889 55.6088L55.0229 82.4959C53.7737 83.2281 52.2263 83.2281 50.9771 82.4959L5.11102 55.6088C2.43493 54.0401 2.48555 50.1543 5.20162 48.6557Z" stroke="black" stroke-width="6"/>
</svg>
